<?xml version="1.0" encoding="UTF-8"?>
<svg id="Lager_1" data-name="Lager 1" xmlns="http://www.w3.org/2000/svg" version="1.1" viewBox="0 0 286.3 104.9">
  <defs>
    <style>
      .cls-1 {
        fill-rule: evenodd;
      }

      .cls-1, .cls-2 {
        fill: #b90835;
        stroke-width: 0px;
      }
    </style>
  </defs>
  <path class="cls-2" d="M249.2,56.5c-19-24.7-50.9-40.7-87.1-40.7s-63.1,13.4-82.4,34.6c16.7-14.8,39.7-24,65.1-24s54.6,11.6,71.5,30h32.8Z"/>
  <path class="cls-2" d="M230.6,33.6C180.4-2.2,105.7,8.7,70.8,56.5h-31C78.6-5.7,174.3-17.3,230.6,33.6h0Z"/>
  <path class="cls-2" d="M31.2,95.9c-.5-.3-1.2-1.4-1.2-2.8v-21.8c0-1.4.6-2.2,1.1-2.6h-4.4l-10.1,19.5-11.5-19.5H1.4c.5.5,1.2.9,1.2,2.5v22.5c0,1.1-.7,1.9-1.1,2.3h4.9c-.5-.4-1.2-1.2-1.2-2.4v-17.2l10.8,18.3,9.8-18.8v17.6c0,1.6-.7,2.3-1.1,2.6h6.6Z"/>
  <path class="cls-1" d="M41.1,69.9c0-1.1-.9-2-2-2s-2,.9-2,2,.9,2,2,2,2-.9,2-2h0ZM42.2,95.9c-.8-.6-1.1-1.3-1.1-2.7v-16.2h-5c1,.5,1.2,1.5,1.2,3v13.3c0,1.2-.2,2-1.2,2.7h6.1Z"/>
  <path class="cls-1" d="M63.2,80.3c-.1-.8-.4-1.7-1-2.4h-3.4c-.7-.7-2.2-1.5-5-1.5s-7.1,2.3-7.1,6.5,1.3,4.7,3.3,5.7c-1.1,1-3.5,2.5-3.5,4.1s2,2.5,3.5,2.8c-2.2.7-4.2,2.1-4.2,4,0,2.9,4.4,3.6,6.7,3.6,3.9,0,9.9-2,9.9-6.7s-3.1-3.8-5.6-3.8c-6.1-.1-6.4-.5-6.4-1.4s1.1-1.7,1.4-2c.6,0,1.2.1,1.8.1,4.5,0,7.4-2.4,7.4-6.8s-.4-2.3-.7-2.8c.3-.1.6-.1,1-.1.7,0,1.4.3,1.9.7h0ZM57.5,83.4c0,2-1,4.1-3.4,4.1s-3.7-3.1-3.7-5.3,1.3-4,3.3-4c3,0,3.8,3.2,3.8,5.2h0ZM59.1,97.9c0,1.9-2.1,3.3-4.9,3.3s-4.3-.8-4.3-2.9c0-1.1.7-1.9,1.5-2.5h5c1.3.1,2.7.4,2.7,2.1h0Z"/>
  <path class="cls-2" d="M77.4,80.9l-.6-4.1c-.5-.3-1.1-.4-1.6-.4-2.2,0-3.7,1.7-4.5,3.5v-2.9h-5c1.1.7,1.2,1.9,1.2,2.9v13.2c0,1.5-.3,2.3-1.1,2.9h6c-.9-.7-1.1-1.6-1.1-2.9v-10.8c.5-1.5,2-2.6,3.6-2.6s2.5.7,3.1,1.3h0Z"/>
  <path class="cls-1" d="M94.6,95.9c-1-.8-1.1-1.5-1.1-3.2v-9.9c0-5.6-3.6-6.5-7.1-6.5s-4.2.5-5.2,1.1c-.5,1-.8,3.1-1,4.2,1.2-1.4,3.2-3.5,6.1-3.5s3.4,2.1,3.4,4.3v1l-5.6,1.9c-2.6.9-4.8,2.7-4.8,5.7s2.2,5.3,5.5,5.3,3.7-1.1,4.9-2.4v1.8h4.9ZM89.7,92.1c-.7.8-1.9,2.2-3.5,2.2s-3-2-3-3.9.9-2.9,2.3-3.5l4.2-1.6v6.8h0Z"/>
  <path class="cls-2" d="M109.1,93.4c-.7.7-1.8,1.2-2.8,1.2-2.2,0-2.7-2.5-2.7-4.2v-11.5h2.2c1.1,0,2.4.3,3.4.9l-.4-2.9h-5.1v-4.5c-1.7,2.4-3.9,5-6.6,6.4h2.8v11.2c0,3.6.8,6.3,4.9,6.3s2.5-.3,3.5-.9c.4-.6.6-1.4.8-2.1h0Z"/>
  <path class="cls-1" d="M116.8,69.9c0-1.1-.9-2-2-2s-2,.9-2,2,.9,2,2,2,2-.9,2-2h0ZM117.9,95.9c-.8-.6-1.1-1.3-1.1-2.7v-16.2h-5c1,.5,1.2,1.5,1.2,3v13.3c0,1.2-.2,2-1.2,2.7h6.1Z"/>
  <path class="cls-1" d="M140.5,86.4c0-5.2-3.3-10-8.9-10s-9.7,4.5-9.7,10.2,3.3,10,8.9,10,9.8-4.5,9.8-10.2h0ZM136.6,88.1c0,3.2-1.3,6.5-4.7,6.5s-6.1-6.2-6.1-9.8,1.2-6.5,4.8-6.5,6.1,6.2,6.1,9.8h0Z"/>
  <path class="cls-2" d="M161.9,95.9c-.7-.5-1.1-1.1-1.1-2.8v-10c0-4.1-1-6.7-5.5-6.7s-4.5,1.4-6,2.9v-2.3h-5c.8.4,1.2,1.2,1.2,2.7v13.5c0,1.5-.4,2.2-1.2,2.7h6.1c-.6-.6-1.1-1-1.1-3v-11.2c.8-1.1,2.7-3.1,4.7-3.1s3.1,2.6,3.1,4.6v10c0,1.9-.7,2.2-1.2,2.7h6.1Z"/>
  <path class="cls-1" d="M178.2,91c0-5.6-8.7-6.9-8.7-10.3s1.8-2.5,3.4-2.5,3.4.7,4.4,2l-.2-3c-1.2-.4-2.8-.9-4.3-.9-3.7,0-6.8,1.6-6.8,4.8,0,6,8.8,6.8,8.8,10.8s-1.6,2.7-3.3,2.7c-2.6,0-4.7-1.2-6.4-3.1v.3c0,1,0,2.5.8,3.2,1.4,1.1,3.9,1.4,5.5,1.4,3.4,0,6.8-1.6,6.8-5.5h0Z"/>
  <path class="cls-2" d="M198.9,77h-3.6c.3.3.3,1.4-.5,3.4l-4.7,12-4.8-11.9c-.7-1.6-.8-2.9-.4-3.4h-5.2c.5.3,1.2,2.2,2.1,4.2l5.9,14.7h3.3l6-15.1c.8-2,1.4-3.4,2-3.8h0Z"/>
  <path class="cls-1" d="M216.5,86.8v-.6c0-4.9-1.6-9.8-7.3-9.8s-9,5.1-9,10.4,3.6,9.7,9.1,9.7,4.1-.4,5.4-1.1c.8-.9,1.2-2,1.5-3.2-1.8,1.3-3.6,2.1-5.9,2.1-3.8,0-6-4-6-7.3h12.3ZM212.5,85.1c-2.8.2-5.5.3-8.3.3,0-2,.7-7.2,4.3-7.2s4,4.4,4,6.9h0Z"/>
  <path class="cls-2" d="M231.9,80.9l-.6-4.1c-.5-.3-1.1-.4-1.6-.4-2.2,0-3.7,1.7-4.5,3.5v-2.9h-5c1.1.7,1.2,1.9,1.2,2.9v13.2c0,1.5-.3,2.3-1.1,2.9h6c-.9-.7-1.1-1.6-1.1-2.9v-10.8c.5-1.5,2-2.6,3.6-2.6s2.5.7,3.1,1.3h0Z"/>
  <path class="cls-2" d="M254.3,96c-5.7-1-6.3-10.2-11.9-10.2l6.7-7.1c.5-.6,1.3-1.2,1.9-1.7h-4.5c.4.4.3,1-.3,1.7l-6.7,7.2v-17.9h-5c.8.5,1.2,1.4,1.2,2.6v22.9c0,1.5-.5,2-1.2,2.6h6c-.7-.6-1-1.2-1-2.6v-6.5c.7,0,1.6.3,2.1.7,3.3,2.1,4.9,7.9,6.8,8.7.4.2,2.4.3,2.9.3,1.1,0,2.1,0,3.2-.5h0Z"/>
  <path class="cls-1" d="M270.8,86.8v-.6c0-4.9-1.6-9.8-7.3-9.8s-9,5.1-9,10.4,3.6,9.7,9.1,9.7,4.1-.4,5.4-1.1c.8-.9,1.2-2,1.5-3.2-1.8,1.3-3.6,2.1-5.9,2.1-3.8,0-6-4-6-7.3h12.3ZM266.8,85.1c-2.8.2-5.5.3-8.3.3,0-2,.7-7.2,4.3-7.2s4,4.4,4,6.9h0Z"/>
  <path class="cls-2" d="M284.9,93.4c-.7.7-1.8,1.2-2.8,1.2-2.2,0-2.7-2.5-2.7-4.2v-11.5h2.2c1.1,0,2.4.3,3.4.9l-.4-2.9h-5.1v-4.5c-1.7,2.4-3.9,5-6.6,6.4h2.8v11.2c0,3.6.8,6.3,4.9,6.3s2.5-.3,3.5-.9c.4-.6.6-1.4.8-2.1h0Z"/>
</svg>