<svg width="1022" height="464" viewBox="0 0 1022 464" fill="none" xmlns="http://www.w3.org/2000/svg">
<rect width="1022" height="464" fill="white"/>
<rect x="909" y="17" width="96" height="46" stroke="#143C50" stroke-width="2"/>
<rect x="16.5" y="84.5" width="989" height="43" fill="#B2B2B2"/>
<rect x="16.5" y="84.5" width="989" height="43" stroke="#D9D9D9"/>
<rect x="24" y="96" width="132" height="20" fill="#D9D9D9"/>
<rect x="222.4" y="96" width="82" height="20" fill="#D9D9D9"/>
<rect x="370.8" y="96" width="132" height="20" fill="#D9D9D9"/>
<rect x="569.2" y="96" width="82" height="20" fill="#D9D9D9"/>
<rect x="717.6" y="96" width="132" height="20" fill="#D9D9D9"/>
<rect x="916" y="96" width="82" height="20" fill="#D9D9D9"/>
<rect x="16.5" y="128.5" width="989" height="39" stroke="#D9D9D9"/>
<rect x="24" y="142" width="132" height="12" fill="#D9D9D9"/>
<rect x="222.4" y="142" width="82" height="12" fill="#D9D9D9"/>
<rect x="370.8" y="142" width="132" height="12" fill="#D9D9D9"/>
<rect x="569.2" y="142" width="82" height="12" fill="#D9D9D9"/>
<rect x="717.6" y="142" width="132" height="12" fill="#D9D9D9"/>
<rect x="916" y="142" width="82" height="12" fill="#D9D9D9"/>
<rect x="16.5" y="168.5" width="989" height="39" fill="#F2F2F2"/>
<rect x="16.5" y="168.5" width="989" height="39" stroke="#D9D9D9"/>
<rect x="24" y="182" width="132" height="12" fill="#D9D9D9"/>
<rect x="222.4" y="182" width="82" height="12" fill="#D9D9D9"/>
<rect x="370.8" y="182" width="132" height="12" fill="#D9D9D9"/>
<rect x="569.2" y="182" width="82" height="12" fill="#D9D9D9"/>
<rect x="717.6" y="182" width="132" height="12" fill="#D9D9D9"/>
<rect x="916" y="182" width="82" height="12" fill="#D9D9D9"/>
<rect x="16.5" y="208.5" width="989" height="39" stroke="#D9D9D9"/>
<rect x="24" y="222" width="132" height="12" fill="#D9D9D9"/>
<rect x="222.4" y="222" width="82" height="12" fill="#D9D9D9"/>
<rect x="370.8" y="222" width="132" height="12" fill="#D9D9D9"/>
<rect x="569.2" y="222" width="82" height="12" fill="#D9D9D9"/>
<rect x="717.6" y="222" width="132" height="12" fill="#D9D9D9"/>
<rect x="916" y="222" width="82" height="12" fill="#D9D9D9"/>
<rect x="16.5" y="248.5" width="989" height="39" fill="#F2F2F2"/>
<rect x="16.5" y="248.5" width="989" height="39" stroke="#D9D9D9"/>
<rect x="24" y="262" width="132" height="12" fill="#D9D9D9"/>
<rect x="222.4" y="262" width="82" height="12" fill="#D9D9D9"/>
<rect x="370.8" y="262" width="132" height="12" fill="#D9D9D9"/>
<rect x="569.2" y="262" width="82" height="12" fill="#D9D9D9"/>
<rect x="717.6" y="262" width="132" height="12" fill="#D9D9D9"/>
<rect x="916" y="262" width="82" height="12" fill="#D9D9D9"/>
<rect x="16.5" y="288.5" width="989" height="39" stroke="#D9D9D9"/>
<rect x="24" y="302" width="132" height="12" fill="#D9D9D9"/>
<rect x="222.4" y="302" width="82" height="12" fill="#D9D9D9"/>
<rect x="370.8" y="302" width="132" height="12" fill="#D9D9D9"/>
<rect x="569.2" y="302" width="82" height="12" fill="#D9D9D9"/>
<rect x="717.6" y="302" width="132" height="12" fill="#D9D9D9"/>
<rect x="916" y="302" width="82" height="12" fill="#D9D9D9"/>
<rect x="16.5" y="328.5" width="989" height="39" fill="#F2F2F2"/>
<rect x="16.5" y="328.5" width="989" height="39" stroke="#D9D9D9"/>
<rect x="24" y="342" width="132" height="12" fill="#D9D9D9"/>
<rect x="222.4" y="342" width="82" height="12" fill="#D9D9D9"/>
<rect x="370.8" y="342" width="132" height="12" fill="#D9D9D9"/>
<rect x="569.2" y="342" width="82" height="12" fill="#D9D9D9"/>
<rect x="717.6" y="342" width="132" height="12" fill="#D9D9D9"/>
<rect x="916" y="342" width="82" height="12" fill="#D9D9D9"/>
<rect x="16.5" y="368.5" width="989" height="39" stroke="#D9D9D9"/>
<rect x="24" y="382" width="132" height="12" fill="#D9D9D9"/>
<rect x="222.4" y="382" width="82" height="12" fill="#D9D9D9"/>
<rect x="370.8" y="382" width="132" height="12" fill="#D9D9D9"/>
<rect x="569.2" y="382" width="82" height="12" fill="#D9D9D9"/>
<rect x="717.6" y="382" width="132" height="12" fill="#D9D9D9"/>
<rect x="916" y="382" width="82" height="12" fill="#D9D9D9"/>
<rect x="16.5" y="408.5" width="989" height="39" fill="#F2F2F2"/>
<rect x="16.5" y="408.5" width="989" height="39" stroke="#D9D9D9"/>
<rect x="24" y="422" width="132" height="12" fill="#D9D9D9"/>
<rect x="222.4" y="422" width="82" height="12" fill="#D9D9D9"/>
<rect x="370.8" y="422" width="132" height="12" fill="#D9D9D9"/>
<rect x="569.2" y="422" width="82" height="12" fill="#D9D9D9"/>
<rect x="717.6" y="422" width="132" height="12" fill="#D9D9D9"/>
<rect x="916" y="422" width="82" height="12" fill="#D9D9D9"/>
<g filter="url(#filter0_d_3811_5120)">
<rect width="264" height="284" transform="translate(742 73)" fill="#F2F2F2"/>
<path d="M773 117.5L768 112.5L763 117.5" stroke="#171717" stroke-width="1.67" stroke-linecap="round" stroke-linejoin="round"/>
<rect x="786" y="109" width="67" height="12" fill="#525252"/>
<rect x="758" y="135" width="65" height="12" fill="#525252"/>
<rect x="758" y="151" width="96" height="10" fill="#525252"/>
<mask id="path-69-inside-1_3811_5120" fill="white">
<path d="M758 169H990V217H758V169Z"/>
</mask>
<path d="M758 169H990V217H758V169Z" fill="white"/>
<path d="M990 217V216H758V217V218H990V217Z" fill="#171717" mask="url(#path-69-inside-1_3811_5120)"/>
<path d="M763 240.5L768 245.5L773 240.5" stroke="#171717" stroke-width="1.67" stroke-linecap="round" stroke-linejoin="round"/>
<rect x="786" y="237" width="67" height="12" fill="#525252"/>
<path d="M763 276.5L768 281.5L773 276.5" stroke="#171717" stroke-width="1.67" stroke-linecap="round" stroke-linejoin="round"/>
<rect x="786" y="273" width="67" height="12" fill="#525252"/>
<path d="M763 312.5L768 317.5L773 312.5" stroke="#171717" stroke-width="1.67" stroke-linecap="round" stroke-linejoin="round"/>
<rect x="786" y="309" width="67" height="12" fill="#525252"/>
</g>
<defs>
<filter id="filter0_d_3811_5120" x="737" y="71" width="274" height="294" filterUnits="userSpaceOnUse" color-interpolation-filters="sRGB">
<feFlood flood-opacity="0" result="BackgroundImageFix"/>
<feColorMatrix in="SourceAlpha" type="matrix" values="0 0 0 0 0 0 0 0 0 0 0 0 0 0 0 0 0 0 127 0" result="hardAlpha"/>
<feOffset dy="3"/>
<feGaussianBlur stdDeviation="2.5"/>
<feComposite in2="hardAlpha" operator="out"/>
<feColorMatrix type="matrix" values="0 0 0 0 0 0 0 0 0 0 0 0 0 0 0 0 0 0 0.2 0"/>
<feBlend mode="normal" in2="BackgroundImageFix" result="effect1_dropShadow_3811_5120"/>
<feBlend mode="normal" in="SourceGraphic" in2="effect1_dropShadow_3811_5120" result="shape"/>
</filter>
</defs>
</svg>
