<svg width="1000" height="600" viewBox="0 0 1000 600" fill="none" xmlns="http://www.w3.org/2000/svg">
<rect width="1000" height="600" fill="white"/>
<rect width="900" height="434" transform="translate(50 83)" fill="white"/>
<mask id="path-1-inside-1_3867_898" fill="white">
<path d="M66 99H242.5V147H66V99Z"/>
</mask>
<path d="M66 99H242.5V147H66V99Z" fill="#F2F2F2"/>
<path d="M242.5 147V146H66V147V148H242.5V147Z" fill="#171717" mask="url(#path-1-inside-1_3867_898)"/>
<mask id="path-3-inside-2_3867_898" fill="white">
<path d="M258.5 99H435V147H258.5V99Z"/>
</mask>
<path d="M258.5 99H435V147H258.5V99Z" fill="#F2F2F2"/>
<path d="M435 147V146H258.5V147V148H435V147Z" fill="#171717" mask="url(#path-3-inside-2_3867_898)"/>
<path d="M406.318 120.5L411.834 125.5L417.35 120.5" stroke="#171717" stroke-width="1.67" stroke-linecap="round" stroke-linejoin="round"/>
<rect x="268.428" y="112" width="44.125" height="23" rx="11.5" fill="#143C50"/>
<mask id="path-7-inside-3_3867_898" fill="white">
<path d="M451 99H627.5V147H451V99Z"/>
</mask>
<path d="M451 99H627.5V147H451V99Z" fill="#F2F2F2"/>
<path d="M627.5 147V146H451V147V148H627.5V147Z" fill="#171717" mask="url(#path-7-inside-3_3867_898)"/>
<path d="M598.818 120.5L604.334 125.5L609.85 120.5" stroke="#171717" stroke-width="1.67" stroke-linecap="round" stroke-linejoin="round"/>
<mask id="path-10-inside-4_3867_898" fill="white">
<path d="M643.5 99H820V147H643.5V99Z"/>
</mask>
<path d="M643.5 99H820V147H643.5V99Z" fill="#F2F2F2"/>
<path d="M820 147V146H643.5V147V148H820V147Z" fill="#171717" mask="url(#path-10-inside-4_3867_898)"/>
<rect x="837" y="100" width="96" height="46" stroke="#143C50" stroke-width="2"/>
<rect x="66" y="165" width="868" height="48" fill="#D9D9D9"/>
<rect x="66" y="213" width="868" height="48" fill="white"/>
<rect x="66" y="261" width="868" height="48" fill="#F2F2F2"/>
<rect x="66" y="309" width="868" height="48" fill="white"/>
<rect x="66" y="357" width="868" height="48" fill="#F2F2F2"/>
<rect x="66" y="405" width="868" height="48" fill="white"/>
<rect x="66" y="453" width="868" height="48" fill="#F2F2F2"/>
</svg>
