<svg width="1000" height="700" viewBox="0 0 1000 700" fill="none" xmlns="http://www.w3.org/2000/svg">
<rect width="1000" height="700" fill="#171717"/>
<path d="M81 76.5L76 71.5L71 76.5" stroke="#F2F2F2" stroke-width="1.67" stroke-linecap="round" stroke-linejoin="round"/>
<rect x="94" y="68" width="67" height="12" fill="#A6A6A6"/>
<mask id="path-3-inside-1_3867_848" fill="white">
<path d="M66 102H266V150H66V102Z"/>
</mask>
<path d="M66 102H266V150H66V102Z" fill="#262626"/>
<path d="M266 150V149H66V150V151H266V150Z" fill="#F2F2F2" mask="url(#path-3-inside-1_3867_848)"/>
<mask id="path-5-inside-2_3867_848" fill="white">
<path d="M284 102H484V150H284V102Z"/>
</mask>
<path d="M284 102H484V150H284V102Z" fill="#262626"/>
<path d="M484 150V149H284V150V151H484V150Z" fill="#F2F2F2" mask="url(#path-5-inside-2_3867_848)"/>
<mask id="path-7-inside-3_3867_848" fill="white">
<path d="M502 102H702V150H502V102Z"/>
</mask>
<path d="M502 102H702V150H502V102Z" fill="#262626"/>
<path d="M702 150V149H502V150V151H702V150Z" fill="#F2F2F2" mask="url(#path-7-inside-3_3867_848)"/>
<mask id="path-9-inside-4_3867_848" fill="white">
<path d="M720 102H920V150H720V102Z"/>
</mask>
<path d="M720 102H920V150H720V102Z" fill="#262626"/>
<path d="M920 150V149H720V150V151H920V150Z" fill="#F2F2F2" mask="url(#path-9-inside-4_3867_848)"/>
<mask id="path-11-inside-5_3867_848" fill="white">
<path d="M66 168H266V216H66V168Z"/>
</mask>
<path d="M66 168H266V216H66V168Z" fill="#262626"/>
<path d="M266 216V215H66V216V217H266V216Z" fill="#F2F2F2" mask="url(#path-11-inside-5_3867_848)"/>
<path d="M233.5 189.5L239.75 194.5L246 189.5" stroke="#F2F2F2" stroke-width="1.67" stroke-linecap="round" stroke-linejoin="round"/>
<rect x="77.25" y="181" width="50" height="23" rx="11.5" fill="#2E7CA5"/>
<mask id="path-15-inside-6_3867_848" fill="white">
<path d="M284 168H484V216H284V168Z"/>
</mask>
<path d="M284 168H484V216H284V168Z" fill="#262626"/>
<path d="M484 216V215H284V216V217H484V216Z" fill="#F2F2F2" mask="url(#path-15-inside-6_3867_848)"/>
<path d="M451.5 189.5L457.75 194.5L464 189.5" stroke="#F2F2F2" stroke-width="1.67" stroke-linecap="round" stroke-linejoin="round"/>
<mask id="path-18-inside-7_3867_848" fill="white">
<path d="M502 168H702V216H502V168Z"/>
</mask>
<path d="M502 168H702V216H502V168Z" fill="#262626"/>
<path d="M702 216V215H502V216V217H702V216Z" fill="#F2F2F2" mask="url(#path-18-inside-7_3867_848)"/>
<rect x="67" y="235" width="96" height="46" stroke="#2E7CA5" stroke-width="2"/>
<rect x="66" y="300" width="868" height="48" fill="#383838"/>
<rect x="66" y="348" width="868" height="48" fill="#171717"/>
<rect x="66" y="396" width="868" height="48" fill="#262626"/>
<rect x="66" y="444" width="868" height="48" fill="#171717"/>
<rect x="66" y="492" width="868" height="48" fill="#262626"/>
<rect x="66" y="540" width="868" height="48" fill="#171717"/>
<rect x="66" y="588" width="868" height="48" fill="#262626"/>
</svg>
