<svg width="440" height="412" viewBox="0 0 440 412" fill="none" xmlns="http://www.w3.org/2000/svg">
<mask id="path-1-inside-1_4_1687" fill="white">
<path d="M0 0H440V412H0V0Z"/>
</mask>
<path d="M0 0H440V412H0V0Z" fill="white"/>
<path d="M0 0V4H440V0V-4H0V0Z" fill="#E62323" mask="url(#path-1-inside-1_4_1687)"/>
<path d="M66.6705 69.3636V81H65.0568L59.142 72.4659H59.0341V81H57.2784V69.3636H58.9034L64.8239 77.9091H64.9318V69.3636H66.6705ZM71.6349 81.1932C71.0819 81.1932 70.5819 81.0909 70.1349 80.8864C69.688 80.678 69.3338 80.3769 69.0724 79.983C68.8149 79.589 68.6861 79.1061 68.6861 78.5341C68.6861 78.0417 68.7808 77.6364 68.9702 77.3182C69.1596 77 69.4152 76.7481 69.7372 76.5625C70.0592 76.3769 70.419 76.2367 70.8168 76.142C71.2145 76.0473 71.6198 75.9754 72.0327 75.9261C72.5554 75.8655 72.9796 75.8163 73.3054 75.7784C73.6312 75.7367 73.8679 75.6705 74.0156 75.5795C74.1634 75.4886 74.2372 75.3409 74.2372 75.1364V75.0966C74.2372 74.6004 74.0971 74.2159 73.8168 73.9432C73.5402 73.6705 73.1274 73.5341 72.5781 73.5341C72.0062 73.5341 71.5554 73.661 71.2259 73.9148C70.9001 74.1648 70.6747 74.4432 70.5497 74.75L68.9531 74.3864C69.1425 73.8561 69.419 73.428 69.7827 73.1023C70.1501 72.7727 70.5724 72.5341 71.0497 72.3864C71.527 72.2348 72.0289 72.1591 72.5554 72.1591C72.9039 72.1591 73.2732 72.2008 73.6634 72.2841C74.0573 72.3636 74.4247 72.5114 74.7656 72.7273C75.1103 72.9432 75.3925 73.2519 75.6122 73.6534C75.8319 74.0511 75.9418 74.5682 75.9418 75.2045V81H74.2827V79.8068H74.2145C74.1046 80.0265 73.9399 80.2424 73.7202 80.4545C73.5005 80.6667 73.2183 80.8428 72.8736 80.983C72.5289 81.1231 72.116 81.1932 71.6349 81.1932ZM72.0043 79.8295C72.474 79.8295 72.8755 79.7367 73.2088 79.5511C73.5459 79.3655 73.8016 79.1231 73.9759 78.8239C74.1539 78.5208 74.2429 78.197 74.2429 77.8523V76.7273C74.1823 76.7879 74.0649 76.8447 73.8906 76.8977C73.7202 76.947 73.5251 76.9905 73.3054 77.0284C73.0857 77.0625 72.8717 77.0947 72.6634 77.125C72.455 77.1515 72.2808 77.1742 72.1406 77.1932C71.8111 77.2348 71.5099 77.3049 71.2372 77.4034C70.9683 77.5019 70.7524 77.6439 70.5895 77.8295C70.4304 78.0114 70.3509 78.2538 70.3509 78.5568C70.3509 78.9773 70.5062 79.2955 70.8168 79.5114C71.1274 79.7235 71.5232 79.8295 72.0043 79.8295ZM78.2045 81V72.2727H79.8352V73.6932H79.9432C80.125 73.2121 80.4223 72.8371 80.8352 72.5682C81.2481 72.2955 81.7424 72.1591 82.3182 72.1591C82.9015 72.1591 83.3902 72.2955 83.7841 72.5682C84.1818 72.8409 84.4754 73.2159 84.6648 73.6932H84.7557C84.964 73.2273 85.2955 72.8561 85.75 72.5795C86.2045 72.2992 86.7462 72.1591 87.375 72.1591C88.1667 72.1591 88.8125 72.4072 89.3125 72.9034C89.8163 73.3996 90.0682 74.1477 90.0682 75.1477V81H88.3693V75.3068C88.3693 74.7159 88.2083 74.2879 87.8864 74.0227C87.5644 73.7576 87.1799 73.625 86.733 73.625C86.1799 73.625 85.75 73.7955 85.4432 74.1364C85.1364 74.4735 84.983 74.9072 84.983 75.4375V81H83.2898V75.1989C83.2898 74.7254 83.142 74.3447 82.8466 74.0568C82.5511 73.7689 82.1667 73.625 81.6932 73.625C81.3712 73.625 81.0739 73.7102 80.8011 73.8807C80.5322 74.0473 80.3144 74.2803 80.1477 74.5795C79.9848 74.8788 79.9034 75.2254 79.9034 75.6193V81H78.2045ZM94.044 75.8182V81H92.3452V72.2727H93.9759V73.6932H94.0838C94.2846 73.2311 94.599 72.8598 95.027 72.5795C95.4588 72.2992 96.0024 72.1591 96.6577 72.1591C97.2524 72.1591 97.7732 72.2841 98.2202 72.5341C98.6671 72.7803 99.0137 73.1477 99.2599 73.6364C99.5062 74.125 99.6293 74.7292 99.6293 75.4489V81H97.9304V75.6534C97.9304 75.0208 97.7656 74.5265 97.4361 74.1705C97.1065 73.8106 96.6539 73.6307 96.0781 73.6307C95.6842 73.6307 95.3338 73.7159 95.027 73.8864C94.724 74.0568 94.4834 74.3068 94.3054 74.6364C94.1312 74.9621 94.044 75.3561 94.044 75.8182Z" fill="#171717"/>
<path d="M57.6506 103H56.358L60.0966 92.8182H61.3693L65.108 103H63.8153L60.7727 94.429H60.6932L57.6506 103ZM58.1278 99.0227H63.3381V100.116H58.1278V99.0227ZM67.7081 98.4062V103H66.5348V95.3636H67.6683V96.5568H67.7678C67.9467 96.169 68.2185 95.8575 68.5831 95.6222C68.9477 95.3835 69.4183 95.2642 69.995 95.2642C70.5121 95.2642 70.9645 95.3703 71.3523 95.5824C71.7401 95.7912 72.0417 96.1094 72.2571 96.5369C72.4725 96.9612 72.5803 97.4981 72.5803 98.1477V103H71.407V98.2273C71.407 97.6274 71.2512 97.16 70.9396 96.8253C70.6281 96.4872 70.2005 96.3182 69.657 96.3182C69.2824 96.3182 68.9477 96.3994 68.6527 96.5618C68.361 96.7242 68.1307 96.9612 67.9616 97.2727C67.7926 97.5843 67.7081 97.9621 67.7081 98.4062ZM77.8066 106.023C77.2399 106.023 76.7527 105.95 76.345 105.804C75.9373 105.661 75.5976 105.473 75.3258 105.237C75.0574 105.005 74.8436 104.757 74.6845 104.491L75.6191 103.835C75.7252 103.974 75.8594 104.134 76.0218 104.312C76.1842 104.495 76.4063 104.652 76.688 104.785C76.9731 104.921 77.3459 104.989 77.8066 104.989C78.4231 104.989 78.9319 104.839 79.3329 104.541C79.734 104.243 79.9345 103.776 79.9345 103.139V101.588H79.835C79.7489 101.727 79.6262 101.9 79.4672 102.105C79.3114 102.307 79.086 102.488 78.791 102.647C78.4993 102.803 78.1049 102.881 77.6078 102.881C76.9913 102.881 76.4378 102.735 75.9473 102.443C75.46 102.152 75.0739 101.727 74.7889 101.17C74.5072 100.614 74.3663 99.9375 74.3663 99.142C74.3663 98.3598 74.5038 97.6787 74.7789 97.0987C75.054 96.5154 75.4368 96.0646 75.9274 95.7464C76.4179 95.425 76.9847 95.2642 77.6277 95.2642C78.1248 95.2642 78.5192 95.3471 78.8109 95.5128C79.1059 95.6752 79.3313 95.8608 79.487 96.0696C79.6461 96.2751 79.7688 96.4441 79.8549 96.5767H79.9743V95.3636H81.1078V103.219C81.1078 103.875 80.9586 104.409 80.6603 104.82C80.3654 105.234 79.9676 105.537 79.4672 105.729C78.97 105.925 78.4165 106.023 77.8066 106.023ZM77.7669 101.827C78.2375 101.827 78.6352 101.719 78.96 101.504C79.2849 101.288 79.5318 100.978 79.7008 100.574C79.8699 100.17 79.9544 99.6856 79.9544 99.1222C79.9544 98.572 79.8715 98.0864 79.7058 97.6655C79.5401 97.2446 79.2948 96.9148 78.97 96.6761C78.6452 96.4375 78.2441 96.3182 77.7669 96.3182C77.2697 96.3182 76.8554 96.4441 76.524 96.696C76.1958 96.9479 75.9489 97.286 75.7832 97.7102C75.6208 98.1345 75.5396 98.6051 75.5396 99.1222C75.5396 99.6525 75.6225 100.121 75.7882 100.529C75.9572 100.933 76.2058 101.252 76.5339 101.484C76.8654 101.712 77.2763 101.827 77.7669 101.827ZM86.4572 103.159C85.7214 103.159 85.0867 102.997 84.5531 102.672C84.0228 102.344 83.6135 101.886 83.3251 101.3C83.0401 100.71 82.8975 100.024 82.8975 99.2415C82.8975 98.4593 83.0401 97.7699 83.3251 97.1733C83.6135 96.5734 84.0145 96.1061 84.5282 95.7713C85.0453 95.4332 85.6485 95.2642 86.3379 95.2642C86.7356 95.2642 87.1284 95.3305 87.5162 95.4631C87.9039 95.5956 88.2569 95.8111 88.5751 96.1094C88.8933 96.4044 89.1468 96.7955 89.3358 97.2827C89.5247 97.7699 89.6191 98.3698 89.6191 99.0824V99.5795H83.7328V98.5653H88.426C88.426 98.1345 88.3398 97.75 88.1674 97.4119C87.9984 97.0739 87.7565 96.8071 87.4416 96.6115C87.13 96.416 86.7621 96.3182 86.3379 96.3182C85.8706 96.3182 85.4662 96.4342 85.1248 96.6662C84.7868 96.8949 84.5266 97.1932 84.3443 97.5611C84.162 97.929 84.0708 98.3234 84.0708 98.7443V99.4205C84.0708 99.9972 84.1703 100.486 84.3691 100.887C84.5713 101.285 84.8514 101.588 85.2093 101.797C85.5673 102.002 85.9833 102.105 86.4572 102.105C86.7654 102.105 87.0439 102.062 87.2924 101.976C87.5443 101.886 87.7614 101.754 87.9437 101.578C88.126 101.399 88.2669 101.177 88.3663 100.912L89.4998 101.23C89.3805 101.615 89.18 101.953 88.8983 102.244C88.6165 102.533 88.2685 102.758 87.8542 102.92C87.4399 103.08 86.9743 103.159 86.4572 103.159ZM95.5005 103V92.8182H96.6738V96.5767H96.7733C96.8594 96.4441 96.9788 96.2751 97.1312 96.0696C97.287 95.8608 97.5091 95.6752 97.7974 95.5128C98.0891 95.3471 98.4835 95.2642 98.9806 95.2642C99.6236 95.2642 100.19 95.425 100.681 95.7464C101.171 96.0679 101.554 96.5237 101.829 97.1136C102.104 97.7036 102.242 98.3996 102.242 99.2017C102.242 100.01 102.104 100.711 101.829 101.305C101.554 101.895 101.173 102.352 100.686 102.677C100.199 102.998 99.6369 103.159 99.0005 103.159C98.51 103.159 98.1172 103.078 97.8223 102.915C97.5273 102.75 97.3002 102.562 97.1412 102.354C96.9821 102.142 96.8594 101.966 96.7733 101.827H96.6341V103H95.5005ZM96.6539 99.1818C96.6539 99.7585 96.7385 100.267 96.9075 100.708C97.0765 101.146 97.3234 101.489 97.6483 101.737C97.9731 101.982 98.3708 102.105 98.8414 102.105C99.332 102.105 99.7413 101.976 100.069 101.717C100.401 101.455 100.649 101.104 100.815 100.663C100.984 100.219 101.069 99.7254 101.069 99.1818C101.069 98.6449 100.986 98.161 100.82 97.7301C100.658 97.2959 100.411 96.9529 100.079 96.701C99.7512 96.4458 99.3386 96.3182 98.8414 96.3182C98.3642 96.3182 97.9631 96.4392 97.6383 96.6811C97.3135 96.9197 97.0682 97.2545 96.9025 97.6854C96.7368 98.1129 96.6539 98.6117 96.6539 99.1818ZM106.284 103.179C105.8 103.179 105.361 103.088 104.966 102.906C104.572 102.72 104.259 102.453 104.027 102.105C103.795 101.754 103.679 101.33 103.679 100.832C103.679 100.395 103.765 100.04 103.937 99.7685C104.11 99.4934 104.34 99.2779 104.628 99.1222C104.917 98.9664 105.235 98.8504 105.583 98.7741C105.934 98.6946 106.287 98.6316 106.642 98.5852C107.106 98.5256 107.482 98.4808 107.77 98.451C108.062 98.4179 108.274 98.3632 108.407 98.2869C108.543 98.2107 108.611 98.0781 108.611 97.8892V97.8494C108.611 97.3589 108.476 96.9777 108.208 96.706C107.943 96.4342 107.54 96.2983 107 96.2983C106.44 96.2983 106.001 96.4209 105.682 96.6662C105.364 96.9115 105.14 97.1733 105.011 97.4517L103.898 97.054C104.096 96.59 104.362 96.2287 104.693 95.9702C105.028 95.7083 105.392 95.526 105.787 95.4233C106.184 95.3172 106.576 95.2642 106.96 95.2642C107.205 95.2642 107.487 95.294 107.805 95.3537C108.127 95.41 108.437 95.5277 108.735 95.7067C109.037 95.8857 109.287 96.1558 109.486 96.517C109.684 96.8783 109.784 97.3622 109.784 97.9688V103H108.611V101.966H108.551C108.471 102.132 108.339 102.309 108.153 102.498C107.968 102.687 107.721 102.848 107.412 102.98C107.104 103.113 106.728 103.179 106.284 103.179ZM106.463 102.125C106.927 102.125 107.318 102.034 107.636 101.852C107.958 101.669 108.2 101.434 108.362 101.146C108.528 100.857 108.611 100.554 108.611 100.236V99.1619C108.561 99.2216 108.452 99.2763 108.282 99.326C108.117 99.3724 107.925 99.4138 107.706 99.4503C107.49 99.4834 107.28 99.5133 107.074 99.5398C106.872 99.563 106.708 99.5829 106.582 99.5994C106.277 99.6392 105.992 99.7038 105.727 99.7933C105.465 99.8795 105.253 100.01 105.091 100.186C104.932 100.358 104.852 100.594 104.852 100.892C104.852 101.3 105.003 101.608 105.305 101.817C105.609 102.022 105.996 102.125 106.463 102.125ZM107.04 94.5085C106.702 94.5085 106.395 94.4339 106.12 94.2848C105.848 94.1357 105.631 93.9335 105.469 93.6783C105.309 93.4231 105.23 93.1364 105.23 92.8182C105.23 92.5 105.309 92.2083 105.469 91.9432C105.631 91.678 105.848 91.4659 106.12 91.3068C106.395 91.1477 106.702 91.0682 107.04 91.0682C107.378 91.0682 107.681 91.1477 107.949 91.3068C108.221 91.4659 108.435 91.678 108.591 91.9432C108.75 92.2083 108.829 92.5 108.829 92.8182C108.829 93.1364 108.75 93.4231 108.591 93.6783C108.435 93.9335 108.221 94.1357 107.949 94.2848C107.681 94.4339 107.378 94.5085 107.04 94.5085ZM107.04 93.7528C107.318 93.7528 107.547 93.6567 107.726 93.4645C107.905 93.2723 107.994 93.0568 107.994 92.8182C107.994 92.5696 107.905 92.3459 107.726 92.147C107.547 91.9448 107.318 91.8438 107.04 91.8438C106.761 91.8438 106.532 91.9448 106.354 92.147C106.175 92.3459 106.085 92.5696 106.085 92.8182C106.085 93.0568 106.175 93.2723 106.354 93.4645C106.532 93.6567 106.761 93.7528 107.04 93.7528ZM114.809 103.159C114.173 103.159 113.611 102.998 113.124 102.677C112.636 102.352 112.255 101.895 111.98 101.305C111.705 100.711 111.567 100.01 111.567 99.2017C111.567 98.3996 111.705 97.7036 111.98 97.1136C112.255 96.5237 112.638 96.0679 113.129 95.7464C113.619 95.425 114.186 95.2642 114.829 95.2642C115.326 95.2642 115.719 95.3471 116.007 95.5128C116.299 95.6752 116.521 95.8608 116.673 96.0696C116.829 96.2751 116.95 96.4441 117.036 96.5767H117.136V92.8182H118.309V103H117.175V101.827H117.036C116.95 101.966 116.827 102.142 116.668 102.354C116.509 102.562 116.282 102.75 115.987 102.915C115.692 103.078 115.299 103.159 114.809 103.159ZM114.968 102.105C115.439 102.105 115.836 101.982 116.161 101.737C116.486 101.489 116.733 101.146 116.902 100.708C117.071 100.267 117.156 99.7585 117.156 99.1818C117.156 98.6117 117.073 98.1129 116.907 97.6854C116.741 97.2545 116.496 96.9197 116.171 96.6811C115.846 96.4392 115.445 96.3182 114.968 96.3182C114.471 96.3182 114.057 96.4458 113.725 96.701C113.397 96.9529 113.15 97.2959 112.984 97.7301C112.822 98.161 112.741 98.6449 112.741 99.1818C112.741 99.7254 112.824 100.219 112.989 100.663C113.158 101.104 113.407 101.455 113.735 101.717C114.067 101.976 114.478 102.105 114.968 102.105ZM123.822 103.159C123.087 103.159 122.452 102.997 121.918 102.672C121.388 102.344 120.979 101.886 120.69 101.3C120.405 100.71 120.263 100.024 120.263 99.2415C120.263 98.4593 120.405 97.7699 120.69 97.1733C120.979 96.5734 121.38 96.1061 121.893 95.7713C122.411 95.4332 123.014 95.2642 123.703 95.2642C124.101 95.2642 124.494 95.3305 124.881 95.4631C125.269 95.5956 125.622 95.8111 125.94 96.1094C126.259 96.4044 126.512 96.7955 126.701 97.2827C126.89 97.7699 126.984 98.3698 126.984 99.0824V99.5795H121.098V98.5653H125.791C125.791 98.1345 125.705 97.75 125.533 97.4119C125.364 97.0739 125.122 96.8071 124.807 96.6115C124.495 96.416 124.127 96.3182 123.703 96.3182C123.236 96.3182 122.831 96.4342 122.49 96.6662C122.152 96.8949 121.892 97.1932 121.71 97.5611C121.527 97.929 121.436 98.3234 121.436 98.7443V99.4205C121.436 99.9972 121.536 100.486 121.734 100.887C121.937 101.285 122.217 101.588 122.575 101.797C122.933 102.002 123.348 102.105 123.822 102.105C124.131 102.105 124.409 102.062 124.658 101.976C124.91 101.886 125.127 101.754 125.309 101.578C125.491 101.399 125.632 101.177 125.732 100.912L126.865 101.23C126.746 101.615 126.545 101.953 126.263 102.244C125.982 102.533 125.634 102.758 125.219 102.92C124.805 103.08 124.339 103.159 123.822 103.159ZM136.107 95.3636V96.358H131.991V95.3636H136.107ZM133.224 103V94.3097C133.224 93.8722 133.326 93.5076 133.532 93.2159C133.737 92.9242 134.004 92.7055 134.332 92.5597C134.661 92.4138 135.007 92.3409 135.371 92.3409C135.66 92.3409 135.895 92.3641 136.077 92.4105C136.26 92.4569 136.396 92.5 136.485 92.5398L136.147 93.554C136.087 93.5341 136.004 93.5092 135.898 93.4794C135.796 93.4496 135.66 93.4347 135.491 93.4347C135.103 93.4347 134.823 93.5324 134.651 93.728C134.482 93.9235 134.397 94.2102 134.397 94.5881V103H133.224ZM140.539 103.159C139.85 103.159 139.245 102.995 138.725 102.667C138.208 102.339 137.803 101.88 137.512 101.29C137.223 100.7 137.079 100.01 137.079 99.2216C137.079 98.4261 137.223 97.7318 137.512 97.1385C137.803 96.5452 138.208 96.0845 138.725 95.7564C139.245 95.4283 139.85 95.2642 140.539 95.2642C141.229 95.2642 141.832 95.4283 142.349 95.7564C142.869 96.0845 143.274 96.5452 143.562 97.1385C143.854 97.7318 144 98.4261 144 99.2216C144 100.01 143.854 100.7 143.562 101.29C143.274 101.88 142.869 102.339 142.349 102.667C141.832 102.995 141.229 103.159 140.539 103.159ZM140.539 102.105C141.063 102.105 141.494 101.971 141.832 101.702C142.17 101.434 142.42 101.081 142.583 100.643C142.745 100.206 142.826 99.732 142.826 99.2216C142.826 98.7112 142.745 98.2356 142.583 97.7947C142.42 97.3539 142.17 96.9976 141.832 96.7259C141.494 96.4541 141.063 96.3182 140.539 96.3182C140.016 96.3182 139.585 96.4541 139.247 96.7259C138.909 96.9976 138.658 97.3539 138.496 97.7947C138.334 98.2356 138.252 98.7112 138.252 99.2216C138.252 99.732 138.334 100.206 138.496 100.643C138.658 101.081 138.909 101.434 139.247 101.702C139.585 101.971 140.016 102.105 140.539 102.105ZM139.108 94.0909C138.899 94.0909 138.713 94.0114 138.551 93.8523C138.392 93.6899 138.312 93.5043 138.312 93.2955C138.312 93.0668 138.392 92.8778 138.551 92.7287C138.713 92.5762 138.899 92.5 139.108 92.5C139.336 92.5 139.525 92.5762 139.674 92.7287C139.827 92.8778 139.903 93.0668 139.903 93.2955C139.903 93.5043 139.827 93.6899 139.674 93.8523C139.525 94.0114 139.336 94.0909 139.108 94.0909ZM141.971 94.0909C141.762 94.0909 141.577 94.0114 141.414 93.8523C141.255 93.6899 141.176 93.5043 141.176 93.2955C141.176 93.0668 141.255 92.8778 141.414 92.7287C141.577 92.5762 141.762 92.5 141.971 92.5C142.2 92.5 142.389 92.5762 142.538 92.7287C142.69 92.8778 142.767 93.0668 142.767 93.2955C142.767 93.5043 142.69 93.6899 142.538 93.8523C142.389 94.0114 142.2 94.0909 141.971 94.0909ZM145.791 103V95.3636H146.924V96.517H147.004C147.143 96.1392 147.395 95.8326 147.759 95.5973C148.124 95.362 148.535 95.2443 148.992 95.2443C149.079 95.2443 149.186 95.246 149.316 95.2493C149.445 95.2526 149.543 95.2576 149.609 95.2642V96.4574C149.569 96.4474 149.478 96.4325 149.335 96.4126C149.196 96.3894 149.049 96.3778 148.893 96.3778C148.522 96.3778 148.19 96.4557 147.899 96.6115C147.61 96.764 147.382 96.9761 147.213 97.2479C147.047 97.5163 146.964 97.8229 146.964 98.1676V103H145.791ZM154.814 98.0881V99.1818H150.36V98.0881H154.814ZM163.918 103.159C163.229 103.159 162.624 102.995 162.104 102.667C161.587 102.339 161.182 101.88 160.891 101.29C160.602 100.7 160.458 100.01 160.458 99.2216C160.458 98.4261 160.602 97.7318 160.891 97.1385C161.182 96.5452 161.587 96.0845 162.104 95.7564C162.624 95.4283 163.229 95.2642 163.918 95.2642C164.608 95.2642 165.211 95.4283 165.728 95.7564C166.248 96.0845 166.653 96.5452 166.941 97.1385C167.233 97.7318 167.379 98.4261 167.379 99.2216C167.379 100.01 167.233 100.7 166.941 101.29C166.653 101.88 166.248 102.339 165.728 102.667C165.211 102.995 164.608 103.159 163.918 103.159ZM163.918 102.105C164.442 102.105 164.873 101.971 165.211 101.702C165.549 101.434 165.799 101.081 165.962 100.643C166.124 100.206 166.205 99.732 166.205 99.2216C166.205 98.7112 166.124 98.2356 165.962 97.7947C165.799 97.3539 165.549 96.9976 165.211 96.7259C164.873 96.4541 164.442 96.3182 163.918 96.3182C163.395 96.3182 162.964 96.4541 162.626 96.7259C162.288 96.9976 162.037 97.3539 161.875 97.7947C161.713 98.2356 161.631 98.7112 161.631 99.2216C161.631 99.732 161.713 100.206 161.875 100.643C162.037 101.081 162.288 101.434 162.626 101.702C162.964 101.971 163.395 102.105 163.918 102.105ZM172.272 103.159C171.556 103.159 170.939 102.99 170.422 102.652C169.905 102.314 169.508 101.848 169.229 101.255C168.951 100.662 168.812 99.9839 168.812 99.2216C168.812 98.446 168.954 97.7616 169.239 97.1683C169.528 96.5717 169.929 96.1061 170.442 95.7713C170.959 95.4332 171.563 95.2642 172.252 95.2642C172.789 95.2642 173.273 95.3636 173.704 95.5625C174.135 95.7614 174.488 96.0398 174.763 96.3977C175.038 96.7557 175.208 97.1733 175.275 97.6506H174.101C174.012 97.3026 173.813 96.9943 173.505 96.7259C173.2 96.4541 172.789 96.3182 172.272 96.3182C171.814 96.3182 171.413 96.4375 171.069 96.6761C170.727 96.9115 170.461 97.2446 170.268 97.6754C170.079 98.103 169.985 98.6051 169.985 99.1818C169.985 99.7718 170.078 100.286 170.263 100.723C170.452 101.161 170.717 101.5 171.059 101.742C171.403 101.984 171.808 102.105 172.272 102.105C172.577 102.105 172.854 102.052 173.102 101.946C173.351 101.84 173.561 101.688 173.733 101.489C173.906 101.29 174.028 101.051 174.101 100.773H175.275C175.208 101.223 175.044 101.629 174.782 101.991C174.524 102.349 174.181 102.634 173.753 102.846C173.329 103.055 172.835 103.159 172.272 103.159ZM178.163 98.4062V103H176.99V92.8182H178.163V96.5568H178.263C178.442 96.1624 178.71 95.8492 179.068 95.6172C179.429 95.3819 179.91 95.2642 180.51 95.2642C181.03 95.2642 181.486 95.3686 181.877 95.5774C182.268 95.7829 182.571 96.0994 182.787 96.527C183.006 96.9512 183.115 97.4915 183.115 98.1477V103H181.942V98.2273C181.942 97.6207 181.784 97.1518 181.469 96.8203C181.158 96.4856 180.725 96.3182 180.172 96.3182C179.787 96.3182 179.443 96.3994 179.138 96.5618C178.836 96.7242 178.597 96.9612 178.422 97.2727C178.249 97.5843 178.163 97.9621 178.163 98.4062ZM192.401 103.159C191.665 103.159 191.03 102.997 190.496 102.672C189.966 102.344 189.557 101.886 189.268 101.3C188.983 100.71 188.841 100.024 188.841 99.2415C188.841 98.4593 188.983 97.7699 189.268 97.1733C189.557 96.5734 189.958 96.1061 190.472 95.7713C190.989 95.4332 191.592 95.2642 192.281 95.2642C192.679 95.2642 193.072 95.3305 193.46 95.4631C193.847 95.5956 194.2 95.8111 194.518 96.1094C194.837 96.4044 195.09 96.7955 195.279 97.2827C195.468 97.7699 195.562 98.3698 195.562 99.0824V99.5795H189.676V98.5653H194.369C194.369 98.1345 194.283 97.75 194.111 97.4119C193.942 97.0739 193.7 96.8071 193.385 96.6115C193.073 96.416 192.705 96.3182 192.281 96.3182C191.814 96.3182 191.41 96.4342 191.068 96.6662C190.73 96.8949 190.47 97.1932 190.288 97.5611C190.105 97.929 190.014 98.3234 190.014 98.7443V99.4205C190.014 99.9972 190.114 100.486 190.312 100.887C190.515 101.285 190.795 101.588 191.153 101.797C191.511 102.002 191.927 102.105 192.401 102.105C192.709 102.105 192.987 102.062 193.236 101.976C193.488 101.886 193.705 101.754 193.887 101.578C194.069 101.399 194.21 101.177 194.31 100.912L195.443 101.23C195.324 101.615 195.123 101.953 194.842 102.244C194.56 102.533 194.212 102.758 193.798 102.92C193.383 103.08 192.918 103.159 192.401 103.159ZM200.748 95.3636V96.358H196.631V95.3636H200.748ZM197.864 103V94.3097C197.864 93.8722 197.967 93.5076 198.173 93.2159C198.378 92.9242 198.645 92.7055 198.973 92.5597C199.301 92.4138 199.647 92.3409 200.012 92.3409C200.3 92.3409 200.536 92.3641 200.718 92.4105C200.9 92.4569 201.036 92.5 201.126 92.5398L200.788 93.554C200.728 93.5341 200.645 93.5092 200.539 93.4794C200.436 93.4496 200.3 93.4347 200.131 93.4347C199.744 93.4347 199.464 93.5324 199.291 93.728C199.122 93.9235 199.038 94.2102 199.038 94.5881V103H197.864ZM205.713 95.3636V96.358H201.756V95.3636H205.713ZM202.909 93.5341H204.083V100.812C204.083 101.144 204.131 101.393 204.227 101.558C204.326 101.721 204.452 101.83 204.605 101.886C204.76 101.939 204.924 101.966 205.097 101.966C205.226 101.966 205.332 101.959 205.415 101.946C205.498 101.929 205.564 101.916 205.614 101.906L205.852 102.96C205.773 102.99 205.662 103.02 205.519 103.05C205.377 103.083 205.196 103.099 204.977 103.099C204.646 103.099 204.321 103.028 204.003 102.886C203.688 102.743 203.426 102.526 203.218 102.234C203.012 101.943 202.909 101.575 202.909 101.131V93.5341ZM210.598 103.159C209.862 103.159 209.227 102.997 208.694 102.672C208.163 102.344 207.754 101.886 207.466 101.3C207.181 100.71 207.038 100.024 207.038 99.2415C207.038 98.4593 207.181 97.7699 207.466 97.1733C207.754 96.5734 208.155 96.1061 208.669 95.7713C209.186 95.4332 209.789 95.2642 210.479 95.2642C210.876 95.2642 211.269 95.3305 211.657 95.4631C212.045 95.5956 212.398 95.8111 212.716 96.1094C213.034 96.4044 213.287 96.7955 213.476 97.2827C213.665 97.7699 213.76 98.3698 213.76 99.0824V99.5795H207.873V98.5653H212.567C212.567 98.1345 212.48 97.75 212.308 97.4119C212.139 97.0739 211.897 96.8071 211.582 96.6115C211.271 96.416 210.903 96.3182 210.479 96.3182C210.011 96.3182 209.607 96.4342 209.265 96.6662C208.927 96.8949 208.667 97.1932 208.485 97.5611C208.303 97.929 208.211 98.3234 208.211 98.7443V99.4205C208.211 99.9972 208.311 100.486 208.51 100.887C208.712 101.285 208.992 101.588 209.35 101.797C209.708 102.002 210.124 102.105 210.598 102.105C210.906 102.105 211.184 102.062 211.433 101.976C211.685 101.886 211.902 101.754 212.084 101.578C212.267 101.399 212.407 101.177 212.507 100.912L213.64 101.23C213.521 101.615 213.321 101.953 213.039 102.244C212.757 102.533 212.409 102.758 211.995 102.92C211.581 103.08 211.115 103.159 210.598 103.159ZM215.545 103V95.3636H216.678V96.517H216.758C216.897 96.1392 217.149 95.8326 217.513 95.5973C217.878 95.362 218.289 95.2443 218.746 95.2443C218.832 95.2443 218.94 95.246 219.069 95.2493C219.199 95.2526 219.296 95.2576 219.363 95.2642V96.4574C219.323 96.4474 219.232 96.4325 219.089 96.4126C218.95 96.3894 218.803 96.3778 218.647 96.3778C218.276 96.3778 217.944 96.4557 217.653 96.6115C217.364 96.764 217.135 96.9761 216.966 97.2479C216.801 97.5163 216.718 97.8229 216.718 98.1676V103H215.545ZM221.927 98.4062V103H220.754V95.3636H221.887V96.5568H221.987C222.165 96.169 222.437 95.8575 222.802 95.6222C223.166 95.3835 223.637 95.2642 224.214 95.2642C224.731 95.2642 225.183 95.3703 225.571 95.5824C225.959 95.7912 226.26 96.1094 226.476 96.5369C226.691 96.9612 226.799 97.4981 226.799 98.1477V103H225.626V98.2273C225.626 97.6274 225.47 97.16 225.158 96.8253C224.847 96.4872 224.419 96.3182 223.876 96.3182C223.501 96.3182 223.166 96.3994 222.871 96.5618C222.58 96.7242 222.349 96.9612 222.18 97.2727C222.011 97.5843 221.927 97.9621 221.927 98.4062ZM231.19 103.179C230.706 103.179 230.267 103.088 229.873 102.906C229.478 102.72 229.165 102.453 228.933 102.105C228.701 101.754 228.585 101.33 228.585 100.832C228.585 100.395 228.671 100.04 228.844 99.7685C229.016 99.4934 229.246 99.2779 229.535 99.1222C229.823 98.9664 230.141 98.8504 230.489 98.7741C230.84 98.6946 231.193 98.6316 231.548 98.5852C232.012 98.5256 232.388 98.4808 232.677 98.451C232.968 98.4179 233.18 98.3632 233.313 98.2869C233.449 98.2107 233.517 98.0781 233.517 97.8892V97.8494C233.517 97.3589 233.383 96.9777 233.114 96.706C232.849 96.4342 232.446 96.2983 231.906 96.2983C231.346 96.2983 230.907 96.4209 230.589 96.6662C230.27 96.9115 230.047 97.1733 229.917 97.4517L228.804 97.054C229.003 96.59 229.268 96.2287 229.599 95.9702C229.934 95.7083 230.299 95.526 230.693 95.4233C231.091 95.3172 231.482 95.2642 231.866 95.2642C232.112 95.2642 232.393 95.294 232.711 95.3537C233.033 95.41 233.343 95.5277 233.641 95.7067C233.943 95.8857 234.193 96.1558 234.392 96.517C234.591 96.8783 234.69 97.3622 234.69 97.9688V103H233.517V101.966H233.457C233.378 102.132 233.245 102.309 233.059 102.498C232.874 102.687 232.627 102.848 232.319 102.98C232.01 103.113 231.634 103.179 231.19 103.179ZM231.369 102.125C231.833 102.125 232.224 102.034 232.542 101.852C232.864 101.669 233.106 101.434 233.268 101.146C233.434 100.857 233.517 100.554 233.517 100.236V99.1619C233.467 99.2216 233.358 99.2763 233.189 99.326C233.023 99.3724 232.831 99.4138 232.612 99.4503C232.397 99.4834 232.186 99.5133 231.981 99.5398C231.778 99.563 231.614 99.5829 231.488 99.5994C231.184 99.6392 230.898 99.7038 230.633 99.7933C230.372 99.8795 230.159 100.01 229.997 100.186C229.838 100.358 229.758 100.594 229.758 100.892C229.758 101.3 229.909 101.608 230.211 101.817C230.516 102.022 230.902 102.125 231.369 102.125ZM236.832 103V95.3636H237.965V96.5568H238.065C238.224 96.1491 238.481 95.8326 238.835 95.6072C239.19 95.3786 239.616 95.2642 240.113 95.2642C240.617 95.2642 241.036 95.3786 241.371 95.6072C241.709 95.8326 241.972 96.1491 242.161 96.5568H242.241C242.436 96.1624 242.73 95.8492 243.121 95.6172C243.512 95.3819 243.981 95.2642 244.528 95.2642C245.21 95.2642 245.769 95.478 246.203 95.9055C246.637 96.3298 246.854 96.991 246.854 97.8892V103H245.681V97.8892C245.681 97.3258 245.527 96.9231 245.219 96.6811C244.911 96.4392 244.548 96.3182 244.13 96.3182C243.593 96.3182 243.177 96.4806 242.882 96.8054C242.587 97.1269 242.44 97.5346 242.44 98.0284V103H241.246V97.7699C241.246 97.3357 241.106 96.986 240.824 96.7209C240.542 96.4524 240.179 96.3182 239.735 96.3182C239.43 96.3182 239.145 96.3994 238.88 96.5618C238.618 96.7242 238.406 96.9496 238.244 97.2379C238.085 97.523 238.005 97.8527 238.005 98.2273V103H236.832ZM250.173 98.4062V103H249V95.3636H250.133V96.5568H250.233C250.412 96.169 250.683 95.8575 251.048 95.6222C251.413 95.3835 251.883 95.2642 252.46 95.2642C252.977 95.2642 253.429 95.3703 253.817 95.5824C254.205 95.7912 254.507 96.1094 254.722 96.5369C254.937 96.9612 255.045 97.4981 255.045 98.1477V103H253.872V98.2273C253.872 97.6274 253.716 97.16 253.404 96.8253C253.093 96.4872 252.665 96.3182 252.122 96.3182C251.747 96.3182 251.413 96.3994 251.118 96.5618C250.826 96.7242 250.596 96.9612 250.426 97.2727C250.257 97.5843 250.173 97.9621 250.173 98.4062Z" fill="#171717"/>
<mask id="path-5-inside-2_4_1687" fill="white">
<path d="M56 115H384V163H56V115Z"/>
</mask>
<path d="M56 115H384V163H56V115Z" fill="#F2F2F2"/>
<path d="M384 163V162H56V163V164H384V163Z" fill="#171717" mask="url(#path-5-inside-2_4_1687)"/>
<path d="M57.2784 199.364H59.4091L63.1136 208.409H63.25L66.9545 199.364H69.0852V211H67.4148V202.58H67.3068L63.875 210.983H62.4886L59.0568 202.574H58.9489V211H57.2784V199.364ZM75.2628 211.176C74.4029 211.176 73.6624 210.992 73.0412 210.625C72.4238 210.254 71.9465 209.733 71.6094 209.062C71.276 208.388 71.1094 207.598 71.1094 206.693C71.1094 205.799 71.276 205.011 71.6094 204.33C71.9465 203.648 72.4162 203.116 73.0185 202.733C73.6245 202.35 74.3329 202.159 75.1435 202.159C75.6359 202.159 76.1132 202.241 76.5753 202.403C77.0374 202.566 77.4522 202.822 77.8196 203.17C78.187 203.519 78.4768 203.972 78.6889 204.528C78.901 205.081 79.0071 205.754 79.0071 206.545V207.148H72.0696V205.875H77.3423C77.3423 205.428 77.2514 205.032 77.0696 204.688C76.8878 204.339 76.6321 204.064 76.3026 203.864C75.9768 203.663 75.5942 203.562 75.1548 203.562C74.6776 203.562 74.2609 203.68 73.9048 203.915C73.5526 204.146 73.2798 204.449 73.0866 204.824C72.8973 205.195 72.8026 205.598 72.8026 206.034V207.028C72.8026 207.612 72.9048 208.108 73.1094 208.517C73.3177 208.926 73.6075 209.239 73.9787 209.455C74.3499 209.667 74.7836 209.773 75.2798 209.773C75.6018 209.773 75.8954 209.727 76.1605 209.636C76.4257 209.542 76.6548 209.402 76.848 209.216C77.0412 209.03 77.1889 208.801 77.2912 208.528L78.8991 208.818C78.7704 209.292 78.5393 209.706 78.206 210.062C77.8764 210.415 77.4616 210.689 76.9616 210.886C76.4654 211.08 75.8991 211.176 75.2628 211.176ZM84.1591 211.17C83.4545 211.17 82.8258 210.991 82.2727 210.631C81.7235 210.267 81.2917 209.75 80.9773 209.08C80.6667 208.405 80.5114 207.597 80.5114 206.653C80.5114 205.71 80.6686 204.903 80.983 204.233C81.3011 203.562 81.7367 203.049 82.2898 202.693C82.8428 202.337 83.4697 202.159 84.1705 202.159C84.7121 202.159 85.1477 202.25 85.4773 202.432C85.8106 202.61 86.0682 202.818 86.25 203.057C86.4356 203.295 86.5795 203.506 86.6818 203.688H86.7841V199.364H88.483V211H86.8239V209.642H86.6818C86.5795 209.828 86.4318 210.04 86.2386 210.278C86.0492 210.517 85.7879 210.725 85.4545 210.903C85.1212 211.081 84.6894 211.17 84.1591 211.17ZM84.5341 209.722C85.0227 209.722 85.4356 209.593 85.7727 209.335C86.1136 209.074 86.3712 208.712 86.5455 208.25C86.7235 207.788 86.8125 207.25 86.8125 206.636C86.8125 206.03 86.7254 205.5 86.5511 205.045C86.3769 204.591 86.1212 204.237 85.7841 203.983C85.447 203.729 85.0303 203.602 84.5341 203.602C84.0227 203.602 83.5966 203.735 83.2557 204C82.9148 204.265 82.6572 204.627 82.483 205.085C82.3125 205.544 82.2273 206.061 82.2273 206.636C82.2273 207.22 82.3144 207.744 82.4886 208.21C82.6629 208.676 82.9205 209.045 83.2614 209.318C83.6061 209.587 84.0303 209.722 84.5341 209.722ZM91.044 211V199.364H92.7429V203.688H92.8452C92.9437 203.506 93.0857 203.295 93.2713 203.057C93.4569 202.818 93.7145 202.61 94.044 202.432C94.3736 202.25 94.8092 202.159 95.3509 202.159C96.0554 202.159 96.6842 202.337 97.2372 202.693C97.7902 203.049 98.224 203.562 98.5384 204.233C98.8565 204.903 99.0156 205.71 99.0156 206.653C99.0156 207.597 98.8584 208.405 98.544 209.08C98.2296 209.75 97.7978 210.267 97.2486 210.631C96.6993 210.991 96.0724 211.17 95.3679 211.17C94.8376 211.17 94.4039 211.081 94.0668 210.903C93.7334 210.725 93.4721 210.517 93.2827 210.278C93.0933 210.04 92.9474 209.828 92.8452 209.642H92.7031V211H91.044ZM92.7088 206.636C92.7088 207.25 92.7978 207.788 92.9759 208.25C93.1539 208.712 93.4115 209.074 93.7486 209.335C94.0857 209.593 94.4986 209.722 94.9872 209.722C95.4948 209.722 95.919 209.587 96.2599 209.318C96.6009 209.045 96.8584 208.676 97.0327 208.21C97.2107 207.744 97.2997 207.22 97.2997 206.636C97.2997 206.061 97.2126 205.544 97.0384 205.085C96.8679 204.627 96.6103 204.265 96.2656 204C95.9247 203.735 95.4986 203.602 94.9872 203.602C94.4948 203.602 94.0781 203.729 93.7372 203.983C93.4001 204.237 93.1444 204.591 92.9702 205.045C92.7959 205.5 92.7088 206.03 92.7088 206.636ZM104.599 211.176C103.781 211.176 103.067 210.989 102.457 210.614C101.848 210.239 101.374 209.714 101.037 209.04C100.7 208.366 100.531 207.578 100.531 206.676C100.531 205.771 100.7 204.979 101.037 204.301C101.374 203.623 101.848 203.097 102.457 202.722C103.067 202.347 103.781 202.159 104.599 202.159C105.418 202.159 106.132 202.347 106.741 202.722C107.351 203.097 107.825 203.623 108.162 204.301C108.499 204.979 108.668 205.771 108.668 206.676C108.668 207.578 108.499 208.366 108.162 209.04C107.825 209.714 107.351 210.239 106.741 210.614C106.132 210.989 105.418 211.176 104.599 211.176ZM104.605 209.75C105.135 209.75 105.575 209.61 105.923 209.33C106.272 209.049 106.529 208.676 106.696 208.21C106.866 207.744 106.952 207.231 106.952 206.67C106.952 206.114 106.866 205.602 106.696 205.136C106.529 204.667 106.272 204.29 105.923 204.006C105.575 203.722 105.135 203.58 104.605 203.58C104.071 203.58 103.628 203.722 103.276 204.006C102.927 204.29 102.668 204.667 102.497 205.136C102.33 205.602 102.247 206.114 102.247 206.67C102.247 207.231 102.33 207.744 102.497 208.21C102.668 208.676 102.927 209.049 103.276 209.33C103.628 209.61 104.071 209.75 104.605 209.75ZM110.564 211V202.273H112.206V203.659H112.297C112.456 203.189 112.736 202.82 113.138 202.551C113.543 202.278 114.001 202.142 114.513 202.142C114.619 202.142 114.744 202.146 114.888 202.153C115.036 202.161 115.151 202.17 115.234 202.182V203.807C115.166 203.788 115.045 203.767 114.871 203.744C114.696 203.718 114.522 203.705 114.348 203.705C113.946 203.705 113.589 203.79 113.274 203.96C112.964 204.127 112.717 204.36 112.536 204.659C112.354 204.955 112.263 205.292 112.263 205.67V211H110.564ZM120.051 214.455C119.358 214.455 118.761 214.364 118.261 214.182C117.765 214 117.36 213.759 117.045 213.46C116.731 213.161 116.496 212.833 116.341 212.477L117.801 211.875C117.903 212.042 118.04 212.218 118.21 212.403C118.384 212.593 118.619 212.754 118.915 212.886C119.214 213.019 119.598 213.085 120.068 213.085C120.712 213.085 121.244 212.928 121.665 212.614C122.085 212.303 122.295 211.807 122.295 211.125V209.409H122.188C122.085 209.595 121.938 209.801 121.744 210.028C121.555 210.256 121.294 210.453 120.96 210.619C120.627 210.786 120.193 210.869 119.659 210.869C118.97 210.869 118.348 210.708 117.795 210.386C117.246 210.061 116.811 209.581 116.489 208.949C116.17 208.312 116.011 207.53 116.011 206.602C116.011 205.674 116.169 204.879 116.483 204.216C116.801 203.553 117.237 203.045 117.79 202.693C118.343 202.337 118.97 202.159 119.67 202.159C120.212 202.159 120.65 202.25 120.983 202.432C121.316 202.61 121.576 202.818 121.761 203.057C121.951 203.295 122.097 203.506 122.199 203.688H122.324V202.273H123.989V211.193C123.989 211.943 123.814 212.559 123.466 213.04C123.117 213.521 122.646 213.877 122.051 214.108C121.46 214.339 120.794 214.455 120.051 214.455ZM120.034 209.46C120.523 209.46 120.936 209.347 121.273 209.119C121.614 208.888 121.871 208.559 122.045 208.131C122.223 207.699 122.312 207.182 122.312 206.58C122.312 205.992 122.225 205.475 122.051 205.028C121.877 204.581 121.621 204.233 121.284 203.983C120.947 203.729 120.53 203.602 120.034 203.602C119.523 203.602 119.097 203.735 118.756 204C118.415 204.261 118.157 204.617 117.983 205.068C117.813 205.519 117.727 206.023 117.727 206.58C117.727 207.152 117.814 207.653 117.989 208.085C118.163 208.517 118.42 208.854 118.761 209.097C119.106 209.339 119.53 209.46 120.034 209.46ZM128.807 211.193C128.254 211.193 127.754 211.091 127.307 210.886C126.86 210.678 126.506 210.377 126.244 209.983C125.987 209.589 125.858 209.106 125.858 208.534C125.858 208.042 125.953 207.636 126.142 207.318C126.331 207 126.587 206.748 126.909 206.562C127.231 206.377 127.591 206.237 127.989 206.142C128.386 206.047 128.792 205.975 129.205 205.926C129.727 205.866 130.152 205.816 130.477 205.778C130.803 205.737 131.04 205.67 131.188 205.58C131.335 205.489 131.409 205.341 131.409 205.136V205.097C131.409 204.6 131.269 204.216 130.989 203.943C130.712 203.67 130.299 203.534 129.75 203.534C129.178 203.534 128.727 203.661 128.398 203.915C128.072 204.165 127.847 204.443 127.722 204.75L126.125 204.386C126.314 203.856 126.591 203.428 126.955 203.102C127.322 202.773 127.744 202.534 128.222 202.386C128.699 202.235 129.201 202.159 129.727 202.159C130.076 202.159 130.445 202.201 130.835 202.284C131.229 202.364 131.597 202.511 131.938 202.727C132.282 202.943 132.564 203.252 132.784 203.653C133.004 204.051 133.114 204.568 133.114 205.205V211H131.455V209.807H131.386C131.277 210.027 131.112 210.242 130.892 210.455C130.672 210.667 130.39 210.843 130.045 210.983C129.701 211.123 129.288 211.193 128.807 211.193ZM129.176 209.83C129.646 209.83 130.047 209.737 130.381 209.551C130.718 209.366 130.973 209.123 131.148 208.824C131.326 208.521 131.415 208.197 131.415 207.852V206.727C131.354 206.788 131.237 206.845 131.062 206.898C130.892 206.947 130.697 206.991 130.477 207.028C130.258 207.062 130.044 207.095 129.835 207.125C129.627 207.152 129.453 207.174 129.312 207.193C128.983 207.235 128.682 207.305 128.409 207.403C128.14 207.502 127.924 207.644 127.761 207.83C127.602 208.011 127.523 208.254 127.523 208.557C127.523 208.977 127.678 209.295 127.989 209.511C128.299 209.723 128.695 209.83 129.176 209.83ZM135.376 211V202.273H137.018V203.659H137.109C137.268 203.189 137.549 202.82 137.95 202.551C138.356 202.278 138.814 202.142 139.325 202.142C139.431 202.142 139.556 202.146 139.7 202.153C139.848 202.161 139.964 202.17 140.047 202.182V203.807C139.979 203.788 139.857 203.767 139.683 203.744C139.509 203.718 139.335 203.705 139.161 203.705C138.759 203.705 138.401 203.79 138.087 203.96C137.776 204.127 137.53 204.36 137.348 204.659C137.166 204.955 137.075 205.292 137.075 205.67V211H135.376ZM148.057 204.403L146.517 204.676C146.453 204.479 146.35 204.292 146.21 204.114C146.074 203.936 145.888 203.79 145.653 203.676C145.419 203.562 145.125 203.506 144.773 203.506C144.292 203.506 143.89 203.614 143.568 203.83C143.246 204.042 143.085 204.316 143.085 204.653C143.085 204.945 143.193 205.18 143.409 205.358C143.625 205.536 143.973 205.682 144.455 205.795L145.841 206.114C146.644 206.299 147.242 206.585 147.636 206.972C148.03 207.358 148.227 207.86 148.227 208.477C148.227 209 148.076 209.466 147.773 209.875C147.473 210.28 147.055 210.598 146.517 210.83C145.983 211.061 145.364 211.176 144.659 211.176C143.682 211.176 142.884 210.968 142.267 210.551C141.65 210.131 141.271 209.534 141.131 208.761L142.773 208.511C142.875 208.939 143.085 209.263 143.403 209.483C143.722 209.699 144.136 209.807 144.648 209.807C145.205 209.807 145.65 209.691 145.983 209.46C146.316 209.225 146.483 208.939 146.483 208.602C146.483 208.33 146.381 208.1 146.176 207.915C145.975 207.729 145.667 207.589 145.25 207.494L143.773 207.17C142.958 206.985 142.356 206.689 141.966 206.284C141.58 205.879 141.386 205.366 141.386 204.744C141.386 204.229 141.53 203.778 141.818 203.392C142.106 203.006 142.504 202.705 143.011 202.489C143.519 202.269 144.1 202.159 144.756 202.159C145.699 202.159 146.441 202.364 146.983 202.773C147.525 203.178 147.883 203.722 148.057 204.403ZM151.658 208.04L151.646 205.966H151.942L155.419 202.273H157.453L153.487 206.477H153.22L151.658 208.04ZM150.095 211V199.364H151.794V211H150.095ZM155.607 211L152.482 206.852L153.652 205.665L157.692 211H155.607ZM161.541 211.193C160.988 211.193 160.488 211.091 160.041 210.886C159.594 210.678 159.24 210.377 158.979 209.983C158.721 209.589 158.592 209.106 158.592 208.534C158.592 208.042 158.687 207.636 158.876 207.318C159.066 207 159.321 206.748 159.643 206.562C159.965 206.377 160.325 206.237 160.723 206.142C161.121 206.047 161.526 205.975 161.939 205.926C162.462 205.866 162.886 205.816 163.212 205.778C163.537 205.737 163.774 205.67 163.922 205.58C164.07 205.489 164.143 205.341 164.143 205.136V205.097C164.143 204.6 164.003 204.216 163.723 203.943C163.446 203.67 163.034 203.534 162.484 203.534C161.912 203.534 161.462 203.661 161.132 203.915C160.806 204.165 160.581 204.443 160.456 204.75L158.859 204.386C159.049 203.856 159.325 203.428 159.689 203.102C160.056 202.773 160.479 202.534 160.956 202.386C161.433 202.235 161.935 202.159 162.462 202.159C162.81 202.159 163.179 202.201 163.57 202.284C163.964 202.364 164.331 202.511 164.672 202.727C165.017 202.943 165.299 203.252 165.518 203.653C165.738 204.051 165.848 204.568 165.848 205.205V211H164.189V209.807H164.121C164.011 210.027 163.846 210.242 163.626 210.455C163.407 210.667 163.125 210.843 162.78 210.983C162.435 211.123 162.022 211.193 161.541 211.193ZM161.911 209.83C162.38 209.83 162.782 209.737 163.115 209.551C163.452 209.366 163.708 209.123 163.882 208.824C164.06 208.521 164.149 208.197 164.149 207.852V206.727C164.089 206.788 163.971 206.845 163.797 206.898C163.626 206.947 163.431 206.991 163.212 207.028C162.992 207.062 162.778 207.095 162.57 207.125C162.361 207.152 162.187 207.174 162.047 207.193C161.717 207.235 161.416 207.305 161.143 207.403C160.875 207.502 160.659 207.644 160.496 207.83C160.337 208.011 160.257 208.254 160.257 208.557C160.257 208.977 160.412 209.295 160.723 209.511C161.034 209.723 161.429 209.83 161.911 209.83ZM168.111 214.273V202.273H169.77V203.688H169.912C170.01 203.506 170.152 203.295 170.338 203.057C170.524 202.818 170.781 202.61 171.111 202.432C171.44 202.25 171.876 202.159 172.418 202.159C173.122 202.159 173.751 202.337 174.304 202.693C174.857 203.049 175.291 203.562 175.605 204.233C175.923 204.903 176.082 205.71 176.082 206.653C176.082 207.597 175.925 208.405 175.611 209.08C175.296 209.75 174.865 210.267 174.315 210.631C173.766 210.991 173.139 211.17 172.435 211.17C171.904 211.17 171.471 211.081 171.134 210.903C170.8 210.725 170.539 210.517 170.349 210.278C170.16 210.04 170.014 209.828 169.912 209.642H169.81V214.273H168.111ZM169.776 206.636C169.776 207.25 169.865 207.788 170.043 208.25C170.221 208.712 170.478 209.074 170.815 209.335C171.152 209.593 171.565 209.722 172.054 209.722C172.562 209.722 172.986 209.587 173.327 209.318C173.668 209.045 173.925 208.676 174.099 208.21C174.277 207.744 174.366 207.22 174.366 206.636C174.366 206.061 174.279 205.544 174.105 205.085C173.935 204.627 173.677 204.265 173.332 204C172.991 203.735 172.565 203.602 172.054 203.602C171.562 203.602 171.145 203.729 170.804 203.983C170.467 204.237 170.211 204.591 170.037 205.045C169.863 205.5 169.776 206.03 169.776 206.636Z" fill="#171717"/>
<path d="M57.6506 233H56.358L60.0966 222.818H61.3693L65.108 233H63.8153L60.7727 224.429H60.6932L57.6506 233ZM58.1278 229.023H63.3381V230.116H58.1278V229.023ZM67.7081 228.406V233H66.5348V225.364H67.6683V226.557H67.7678C67.9467 226.169 68.2185 225.857 68.5831 225.622C68.9477 225.384 69.4183 225.264 69.995 225.264C70.5121 225.264 70.9645 225.37 71.3523 225.582C71.7401 225.791 72.0417 226.109 72.2571 226.537C72.4725 226.961 72.5803 227.498 72.5803 228.148V233H71.407V228.227C71.407 227.627 71.2512 227.16 70.9396 226.825C70.6281 226.487 70.2005 226.318 69.657 226.318C69.2824 226.318 68.9477 226.399 68.6527 226.562C68.361 226.724 68.1307 226.961 67.9616 227.273C67.7926 227.584 67.7081 227.962 67.7081 228.406ZM77.8066 236.023C77.2399 236.023 76.7527 235.95 76.345 235.804C75.9373 235.661 75.5976 235.473 75.3258 235.237C75.0574 235.005 74.8436 234.757 74.6845 234.491L75.6191 233.835C75.7252 233.974 75.8594 234.134 76.0218 234.312C76.1842 234.495 76.4063 234.652 76.688 234.785C76.9731 234.921 77.3459 234.989 77.8066 234.989C78.4231 234.989 78.9319 234.839 79.3329 234.541C79.734 234.243 79.9345 233.776 79.9345 233.139V231.588H79.835C79.7489 231.727 79.6262 231.9 79.4672 232.105C79.3114 232.307 79.086 232.488 78.791 232.647C78.4993 232.803 78.1049 232.881 77.6078 232.881C76.9913 232.881 76.4378 232.735 75.9473 232.443C75.46 232.152 75.0739 231.727 74.7889 231.17C74.5072 230.614 74.3663 229.937 74.3663 229.142C74.3663 228.36 74.5038 227.679 74.7789 227.099C75.054 226.515 75.4368 226.065 75.9274 225.746C76.4179 225.425 76.9847 225.264 77.6277 225.264C78.1248 225.264 78.5192 225.347 78.8109 225.513C79.1059 225.675 79.3313 225.861 79.487 226.07C79.6461 226.275 79.7688 226.444 79.8549 226.577H79.9743V225.364H81.1078V233.219C81.1078 233.875 80.9586 234.409 80.6603 234.82C80.3654 235.234 79.9676 235.537 79.4672 235.729C78.97 235.925 78.4165 236.023 77.8066 236.023ZM77.7669 231.827C78.2375 231.827 78.6352 231.719 78.96 231.504C79.2849 231.288 79.5318 230.978 79.7008 230.574C79.8699 230.17 79.9544 229.686 79.9544 229.122C79.9544 228.572 79.8715 228.086 79.7058 227.665C79.5401 227.245 79.2948 226.915 78.97 226.676C78.6452 226.437 78.2441 226.318 77.7669 226.318C77.2697 226.318 76.8554 226.444 76.524 226.696C76.1958 226.948 75.9489 227.286 75.7832 227.71C75.6208 228.134 75.5396 228.605 75.5396 229.122C75.5396 229.652 75.6225 230.121 75.7882 230.529C75.9572 230.933 76.2058 231.252 76.5339 231.484C76.8654 231.712 77.2763 231.827 77.7669 231.827ZM86.4572 233.159C85.7214 233.159 85.0867 232.997 84.5531 232.672C84.0228 232.344 83.6135 231.886 83.3251 231.3C83.0401 230.71 82.8975 230.024 82.8975 229.241C82.8975 228.459 83.0401 227.77 83.3251 227.173C83.6135 226.573 84.0145 226.106 84.5282 225.771C85.0453 225.433 85.6485 225.264 86.3379 225.264C86.7356 225.264 87.1284 225.33 87.5162 225.463C87.9039 225.596 88.2569 225.811 88.5751 226.109C88.8933 226.404 89.1468 226.795 89.3358 227.283C89.5247 227.77 89.6191 228.37 89.6191 229.082V229.58H83.7328V228.565H88.426C88.426 228.134 88.3398 227.75 88.1674 227.412C87.9984 227.074 87.7565 226.807 87.4416 226.612C87.13 226.416 86.7621 226.318 86.3379 226.318C85.8706 226.318 85.4662 226.434 85.1248 226.666C84.7868 226.895 84.5266 227.193 84.3443 227.561C84.162 227.929 84.0708 228.323 84.0708 228.744V229.42C84.0708 229.997 84.1703 230.486 84.3691 230.887C84.5713 231.285 84.8514 231.588 85.2093 231.797C85.5673 232.002 85.9833 232.105 86.4572 232.105C86.7654 232.105 87.0439 232.062 87.2924 231.976C87.5443 231.886 87.7614 231.754 87.9437 231.578C88.126 231.399 88.2669 231.177 88.3663 230.912L89.4998 231.23C89.3805 231.615 89.18 231.953 88.8983 232.244C88.6165 232.533 88.2685 232.758 87.8542 232.92C87.4399 233.08 86.9743 233.159 86.4572 233.159ZM97.5886 233.179C97.1047 233.179 96.6655 233.088 96.2711 232.906C95.8767 232.72 95.5635 232.453 95.3315 232.105C95.0995 231.754 94.9835 231.33 94.9835 230.832C94.9835 230.395 95.0697 230.04 95.242 229.768C95.4144 229.493 95.6447 229.278 95.9331 229.122C96.2214 228.966 96.5396 228.85 96.8876 228.774C97.2389 228.695 97.5919 228.632 97.9466 228.585C98.4106 228.526 98.7868 228.481 99.0751 228.451C99.3668 228.418 99.5789 228.363 99.7115 228.287C99.8474 228.211 99.9153 228.078 99.9153 227.889V227.849C99.9153 227.359 99.7811 226.978 99.5126 226.706C99.2475 226.434 98.8448 226.298 98.3045 226.298C97.7444 226.298 97.3052 226.421 96.987 226.666C96.6689 226.911 96.4451 227.173 96.3159 227.452L95.2022 227.054C95.4011 226.59 95.6663 226.229 95.9977 225.97C96.3324 225.708 96.697 225.526 97.0914 225.423C97.4892 225.317 97.8803 225.264 98.2647 225.264C98.51 225.264 98.7917 225.294 99.1099 225.354C99.4314 225.41 99.7413 225.528 100.04 225.707C100.341 225.886 100.591 226.156 100.79 226.517C100.989 226.878 101.089 227.362 101.089 227.969V233H99.9153V231.966H99.8556C99.7761 232.132 99.6435 232.309 99.4579 232.498C99.2723 232.687 99.0254 232.848 98.7172 232.98C98.4089 233.113 98.0327 233.179 97.5886 233.179ZM97.7676 232.125C98.2316 232.125 98.6227 232.034 98.9409 231.852C99.2624 231.669 99.5043 231.434 99.6667 231.146C99.8324 230.857 99.9153 230.554 99.9153 230.236V229.162C99.8656 229.222 99.7562 229.276 99.5872 229.326C99.4215 229.372 99.2292 229.414 99.0105 229.45C98.795 229.483 98.5846 229.513 98.3791 229.54C98.1769 229.563 98.0128 229.583 97.8869 229.599C97.582 229.639 97.2969 229.704 97.0318 229.793C96.7699 229.879 96.5578 230.01 96.3954 230.186C96.2363 230.358 96.1568 230.594 96.1568 230.892C96.1568 231.3 96.3076 231.608 96.6092 231.817C96.9141 232.022 97.3002 232.125 97.7676 232.125ZM104.403 222.818V233H103.23V222.818H104.403ZM107.726 222.818V233H106.552V222.818H107.726ZM112.122 233.179C111.638 233.179 111.199 233.088 110.804 232.906C110.41 232.72 110.097 232.453 109.865 232.105C109.633 231.754 109.517 231.33 109.517 230.832C109.517 230.395 109.603 230.04 109.775 229.768C109.948 229.493 110.178 229.278 110.466 229.122C110.755 228.966 111.073 228.85 111.421 228.774C111.772 228.695 112.125 228.632 112.48 228.585C112.944 228.526 113.32 228.481 113.608 228.451C113.9 228.418 114.112 228.363 114.245 228.287C114.381 228.211 114.449 228.078 114.449 227.889V227.849C114.449 227.359 114.314 226.978 114.046 226.706C113.781 226.434 113.378 226.298 112.838 226.298C112.278 226.298 111.838 226.421 111.52 226.666C111.202 226.911 110.978 227.173 110.849 227.452L109.735 227.054C109.934 226.59 110.199 226.229 110.531 225.97C110.866 225.708 111.23 225.526 111.625 225.423C112.022 225.317 112.413 225.264 112.798 225.264C113.043 225.264 113.325 225.294 113.643 225.354C113.965 225.41 114.275 225.528 114.573 225.707C114.874 225.886 115.125 226.156 115.324 226.517C115.522 226.878 115.622 227.362 115.622 227.969V233H114.449V231.966H114.389C114.309 232.132 114.177 232.309 113.991 232.498C113.806 232.687 113.559 232.848 113.25 232.98C112.942 233.113 112.566 233.179 112.122 233.179ZM112.301 232.125C112.765 232.125 113.156 232.034 113.474 231.852C113.796 231.669 114.038 231.434 114.2 231.146C114.366 230.857 114.449 230.554 114.449 230.236V229.162C114.399 229.222 114.289 229.276 114.12 229.326C113.955 229.372 113.762 229.414 113.544 229.45C113.328 229.483 113.118 229.513 112.912 229.54C112.71 229.563 112.546 229.583 112.42 229.599C112.115 229.639 111.83 229.704 111.565 229.793C111.303 229.879 111.091 230.01 110.929 230.186C110.77 230.358 110.69 230.594 110.69 230.892C110.69 231.3 110.841 231.608 111.142 231.817C111.447 232.022 111.833 232.125 112.301 232.125ZM122.874 222.818V233H121.701V222.818H122.874ZM127.27 233.179C126.786 233.179 126.347 233.088 125.953 232.906C125.558 232.72 125.245 232.453 125.013 232.105C124.781 231.754 124.665 231.33 124.665 230.832C124.665 230.395 124.751 230.04 124.924 229.768C125.096 229.493 125.326 229.278 125.615 229.122C125.903 228.966 126.221 228.85 126.569 228.774C126.921 228.695 127.274 228.632 127.628 228.585C128.092 228.526 128.468 228.481 128.757 228.451C129.048 228.418 129.261 228.363 129.393 228.287C129.529 228.211 129.597 228.078 129.597 227.889V227.849C129.597 227.359 129.463 226.978 129.194 226.706C128.929 226.434 128.526 226.298 127.986 226.298C127.426 226.298 126.987 226.421 126.669 226.666C126.35 226.911 126.127 227.173 125.998 227.452L124.884 227.054C125.083 226.59 125.348 226.229 125.679 225.97C126.014 225.708 126.379 225.526 126.773 225.423C127.171 225.317 127.562 225.264 127.946 225.264C128.192 225.264 128.473 225.294 128.792 225.354C129.113 225.41 129.423 225.528 129.721 225.707C130.023 225.886 130.273 226.156 130.472 226.517C130.671 226.878 130.77 227.362 130.77 227.969V233H129.597V231.966H129.537C129.458 232.132 129.325 232.309 129.14 232.498C128.954 232.687 128.707 232.848 128.399 232.98C128.091 233.113 127.714 233.179 127.27 233.179ZM127.449 232.125C127.913 232.125 128.304 232.034 128.623 231.852C128.944 231.669 129.186 231.434 129.348 231.146C129.514 230.857 129.597 230.554 129.597 230.236V229.162C129.547 229.222 129.438 229.276 129.269 229.326C129.103 229.372 128.911 229.414 128.692 229.45C128.477 229.483 128.266 229.513 128.061 229.54C127.859 229.563 127.694 229.583 127.569 229.599C127.264 229.639 126.979 229.704 126.713 229.793C126.452 229.879 126.239 230.01 126.077 230.186C125.918 230.358 125.838 230.594 125.838 230.892C125.838 231.3 125.989 231.608 126.291 231.817C126.596 232.022 126.982 232.125 127.449 232.125ZM126.594 224.091C126.385 224.091 126.2 224.011 126.037 223.852C125.878 223.69 125.799 223.504 125.799 223.295C125.799 223.067 125.878 222.878 126.037 222.729C126.2 222.576 126.385 222.5 126.594 222.5C126.823 222.5 127.012 222.576 127.161 222.729C127.313 222.878 127.39 223.067 127.39 223.295C127.39 223.504 127.313 223.69 127.161 223.852C127.012 224.011 126.823 224.091 126.594 224.091ZM129.458 224.091C129.249 224.091 129.063 224.011 128.901 223.852C128.742 223.69 128.662 223.504 128.662 223.295C128.662 223.067 128.742 222.878 128.901 222.729C129.063 222.576 129.249 222.5 129.458 222.5C129.686 222.5 129.875 222.576 130.025 222.729C130.177 222.878 130.253 223.067 130.253 223.295C130.253 223.504 130.177 223.69 130.025 223.852C129.875 224.011 129.686 224.091 129.458 224.091ZM134.085 228.406V233H132.912V225.364H134.045V226.557H134.145C134.324 226.169 134.595 225.857 134.96 225.622C135.325 225.384 135.795 225.264 136.372 225.264C136.889 225.264 137.341 225.37 137.729 225.582C138.117 225.791 138.419 226.109 138.634 226.537C138.849 226.961 138.957 227.498 138.957 228.148V233H137.784V228.227C137.784 227.627 137.628 227.16 137.317 226.825C137.005 226.487 136.577 226.318 136.034 226.318C135.659 226.318 135.325 226.399 135.03 226.562C134.738 226.724 134.508 226.961 134.339 227.273C134.17 227.584 134.085 227.962 134.085 228.406ZM143.985 233.159C143.348 233.159 142.787 232.998 142.299 232.677C141.812 232.352 141.431 231.895 141.156 231.305C140.881 230.711 140.743 230.01 140.743 229.202C140.743 228.4 140.881 227.704 141.156 227.114C141.431 226.524 141.814 226.068 142.304 225.746C142.795 225.425 143.362 225.264 144.005 225.264C144.502 225.264 144.895 225.347 145.183 225.513C145.475 225.675 145.697 225.861 145.849 226.07C146.005 226.275 146.126 226.444 146.212 226.577H146.311V222.818H147.485V233H146.351V231.827H146.212C146.126 231.966 146.003 232.142 145.844 232.354C145.685 232.562 145.458 232.75 145.163 232.915C144.868 233.078 144.475 233.159 143.985 233.159ZM144.144 232.105C144.614 232.105 145.012 231.982 145.337 231.737C145.662 231.489 145.909 231.146 146.078 230.708C146.247 230.267 146.331 229.759 146.331 229.182C146.331 228.612 146.248 228.113 146.083 227.685C145.917 227.254 145.672 226.92 145.347 226.681C145.022 226.439 144.621 226.318 144.144 226.318C143.647 226.318 143.232 226.446 142.901 226.701C142.573 226.953 142.326 227.296 142.16 227.73C141.998 228.161 141.917 228.645 141.917 229.182C141.917 229.725 141.999 230.219 142.165 230.663C142.334 231.104 142.583 231.455 142.911 231.717C143.242 231.976 143.653 232.105 144.144 232.105ZM152.998 233.159C152.262 233.159 151.628 232.997 151.094 232.672C150.564 232.344 150.154 231.886 149.866 231.3C149.581 230.71 149.439 230.024 149.439 229.241C149.439 228.459 149.581 227.77 149.866 227.173C150.154 226.573 150.556 226.106 151.069 225.771C151.586 225.433 152.19 225.264 152.879 225.264C153.277 225.264 153.669 225.33 154.057 225.463C154.445 225.596 154.798 225.811 155.116 226.109C155.434 226.404 155.688 226.795 155.877 227.283C156.066 227.77 156.16 228.37 156.16 229.082V229.58H150.274V228.565H154.967C154.967 228.134 154.881 227.75 154.708 227.412C154.539 227.074 154.297 226.807 153.983 226.612C153.671 226.416 153.303 226.318 152.879 226.318C152.412 226.318 152.007 226.434 151.666 226.666C151.328 226.895 151.068 227.193 150.885 227.561C150.703 227.929 150.612 228.323 150.612 228.744V229.42C150.612 229.997 150.711 230.486 150.91 230.887C151.112 231.285 151.392 231.588 151.75 231.797C152.108 232.002 152.524 232.105 152.998 232.105C153.306 232.105 153.585 232.062 153.833 231.976C154.085 231.886 154.302 231.754 154.485 231.578C154.667 231.399 154.808 231.177 154.907 230.912L156.041 231.23C155.922 231.615 155.721 231.953 155.439 232.244C155.158 232.533 154.81 232.758 154.395 232.92C153.981 233.08 153.515 233.159 152.998 233.159ZM157.945 233V225.364H159.078V226.517H159.158C159.297 226.139 159.549 225.833 159.914 225.597C160.278 225.362 160.689 225.244 161.147 225.244C161.233 225.244 161.341 225.246 161.47 225.249C161.599 225.253 161.697 225.258 161.763 225.264V226.457C161.723 226.447 161.632 226.433 161.49 226.413C161.35 226.389 161.203 226.378 161.047 226.378C160.676 226.378 160.345 226.456 160.053 226.612C159.765 226.764 159.536 226.976 159.367 227.248C159.201 227.516 159.118 227.823 159.118 228.168V233H157.945ZM169.975 233.159C169.339 233.159 168.777 232.998 168.29 232.677C167.802 232.352 167.421 231.895 167.146 231.305C166.871 230.711 166.733 230.01 166.733 229.202C166.733 228.4 166.871 227.704 167.146 227.114C167.421 226.524 167.804 226.068 168.295 225.746C168.785 225.425 169.352 225.264 169.995 225.264C170.492 225.264 170.885 225.347 171.173 225.513C171.465 225.675 171.687 225.861 171.839 226.07C171.995 226.275 172.116 226.444 172.202 226.577H172.302V222.818H173.475V233H172.341V231.827H172.202C172.116 231.966 171.993 232.142 171.834 232.354C171.675 232.562 171.448 232.75 171.153 232.915C170.858 233.078 170.465 233.159 169.975 233.159ZM170.134 232.105C170.605 232.105 171.002 231.982 171.327 231.737C171.652 231.489 171.899 231.146 172.068 230.708C172.237 230.267 172.322 229.759 172.322 229.182C172.322 228.612 172.239 228.113 172.073 227.685C171.907 227.254 171.662 226.92 171.337 226.681C171.012 226.439 170.611 226.318 170.134 226.318C169.637 226.318 169.223 226.446 168.891 226.701C168.563 226.953 168.316 227.296 168.15 227.73C167.988 228.161 167.907 228.645 167.907 229.182C167.907 229.725 167.99 230.219 168.155 230.663C168.324 231.104 168.573 231.455 168.901 231.717C169.233 231.976 169.644 232.105 170.134 232.105ZM180.599 229.878V225.364H181.773V233H180.599V231.707H180.52C180.341 232.095 180.062 232.425 179.684 232.697C179.307 232.965 178.829 233.099 178.253 233.099C177.775 233.099 177.351 232.995 176.98 232.786C176.609 232.574 176.317 232.256 176.105 231.832C175.893 231.404 175.787 230.866 175.787 230.216V225.364H176.96V230.136C176.96 230.693 177.116 231.137 177.427 231.469C177.742 231.8 178.143 231.966 178.631 231.966C178.922 231.966 179.219 231.891 179.52 231.742C179.825 231.593 180.081 231.364 180.286 231.056C180.495 230.748 180.599 230.355 180.599 229.878ZM190.106 233.179C189.622 233.179 189.183 233.088 188.789 232.906C188.394 232.72 188.081 232.453 187.849 232.105C187.617 231.754 187.501 231.33 187.501 230.832C187.501 230.395 187.587 230.04 187.76 229.768C187.932 229.493 188.162 229.278 188.451 229.122C188.739 228.966 189.057 228.85 189.405 228.774C189.757 228.695 190.109 228.632 190.464 228.585C190.928 228.526 191.304 228.481 191.593 228.451C191.884 228.418 192.096 228.363 192.229 228.287C192.365 228.211 192.433 228.078 192.433 227.889V227.849C192.433 227.359 192.299 226.978 192.03 226.706C191.765 226.434 191.362 226.298 190.822 226.298C190.262 226.298 189.823 226.421 189.505 226.666C189.186 226.911 188.963 227.173 188.833 227.452L187.72 227.054C187.919 226.59 188.184 226.229 188.515 225.97C188.85 225.708 189.215 225.526 189.609 225.423C190.007 225.317 190.398 225.264 190.782 225.264C191.028 225.264 191.309 225.294 191.627 225.354C191.949 225.41 192.259 225.528 192.557 225.707C192.859 225.886 193.109 226.156 193.308 226.517C193.507 226.878 193.606 227.362 193.606 227.969V233H192.433V231.966H192.373C192.294 232.132 192.161 232.309 191.975 232.498C191.79 232.687 191.543 232.848 191.235 232.98C190.926 233.113 190.55 233.179 190.106 233.179ZM190.285 232.125C190.749 232.125 191.14 232.034 191.458 231.852C191.78 231.669 192.022 231.434 192.184 231.146C192.35 230.857 192.433 230.554 192.433 230.236V229.162C192.383 229.222 192.274 229.276 192.105 229.326C191.939 229.372 191.747 229.414 191.528 229.45C191.313 229.483 191.102 229.513 190.897 229.54C190.694 229.563 190.53 229.583 190.404 229.599C190.1 229.639 189.815 229.704 189.549 229.793C189.288 229.879 189.075 230.01 188.913 230.186C188.754 230.358 188.674 230.594 188.674 230.892C188.674 231.3 188.825 231.608 189.127 231.817C189.432 232.022 189.818 232.125 190.285 232.125ZM189.43 224.091C189.221 224.091 189.036 224.011 188.873 223.852C188.714 223.69 188.635 223.504 188.635 223.295C188.635 223.067 188.714 222.878 188.873 222.729C189.036 222.576 189.221 222.5 189.43 222.5C189.659 222.5 189.848 222.576 189.997 222.729C190.149 222.878 190.225 223.067 190.225 223.295C190.225 223.504 190.149 223.69 189.997 223.852C189.848 224.011 189.659 224.091 189.43 224.091ZM192.294 224.091C192.085 224.091 191.899 224.011 191.737 223.852C191.578 223.69 191.498 223.504 191.498 223.295C191.498 223.067 191.578 222.878 191.737 222.729C191.899 222.576 192.085 222.5 192.294 222.5C192.522 222.5 192.711 222.576 192.86 222.729C193.013 222.878 193.089 223.067 193.089 223.295C193.089 223.504 193.013 223.69 192.86 223.852C192.711 224.011 192.522 224.091 192.294 224.091ZM195.748 233V225.364H196.881V226.517H196.961C197.1 226.139 197.352 225.833 197.716 225.597C198.081 225.362 198.492 225.244 198.949 225.244C199.036 225.244 199.143 225.246 199.273 225.249C199.402 225.253 199.5 225.258 199.566 225.264V226.457C199.526 226.447 199.435 226.433 199.292 226.413C199.153 226.389 199.006 226.378 198.85 226.378C198.479 226.378 198.147 226.456 197.856 226.612C197.567 226.764 197.339 226.976 197.17 227.248C197.004 227.516 196.921 227.823 196.921 228.168V233H195.748ZM204.894 233V225.364H206.028V226.557H206.127C206.286 226.149 206.543 225.833 206.898 225.607C207.252 225.379 207.678 225.264 208.175 225.264C208.679 225.264 209.098 225.379 209.433 225.607C209.771 225.833 210.035 226.149 210.224 226.557H210.303C210.499 226.162 210.792 225.849 211.183 225.617C211.574 225.382 212.043 225.264 212.59 225.264C213.273 225.264 213.831 225.478 214.266 225.906C214.7 226.33 214.917 226.991 214.917 227.889V233H213.744V227.889C213.744 227.326 213.589 226.923 213.281 226.681C212.973 226.439 212.61 226.318 212.192 226.318C211.656 226.318 211.24 226.481 210.945 226.805C210.65 227.127 210.502 227.535 210.502 228.028V233H209.309V227.77C209.309 227.336 209.168 226.986 208.886 226.721C208.605 226.452 208.242 226.318 207.798 226.318C207.493 226.318 207.208 226.399 206.942 226.562C206.681 226.724 206.469 226.95 206.306 227.238C206.147 227.523 206.067 227.853 206.067 228.227V233H204.894ZM220.264 233.159C219.528 233.159 218.893 232.997 218.36 232.672C217.829 232.344 217.42 231.886 217.132 231.3C216.847 230.71 216.704 230.024 216.704 229.241C216.704 228.459 216.847 227.77 217.132 227.173C217.42 226.573 217.821 226.106 218.335 225.771C218.852 225.433 219.455 225.264 220.145 225.264C220.542 225.264 220.935 225.33 221.323 225.463C221.711 225.596 222.064 225.811 222.382 226.109C222.7 226.404 222.953 226.795 223.142 227.283C223.331 227.77 223.426 228.37 223.426 229.082V229.58H217.539V228.565H222.233C222.233 228.134 222.146 227.75 221.974 227.412C221.805 227.074 221.563 226.807 221.248 226.612C220.937 226.416 220.569 226.318 220.145 226.318C219.677 226.318 219.273 226.434 218.931 226.666C218.593 226.895 218.333 227.193 218.151 227.561C217.969 227.929 217.877 228.323 217.877 228.744V229.42C217.877 229.997 217.977 230.486 218.176 230.887C218.378 231.285 218.658 231.588 219.016 231.797C219.374 232.002 219.79 232.105 220.264 232.105C220.572 232.105 220.85 232.062 221.099 231.976C221.351 231.886 221.568 231.754 221.75 231.578C221.933 231.399 222.074 231.177 222.173 230.912L223.306 231.23C223.187 231.615 222.987 231.953 222.705 232.244C222.423 232.533 222.075 232.758 221.661 232.92C221.247 233.08 220.781 233.159 220.264 233.159ZM228.094 233.159C227.458 233.159 226.896 232.998 226.409 232.677C225.922 232.352 225.54 231.895 225.265 231.305C224.99 230.711 224.853 230.01 224.853 229.202C224.853 228.4 224.99 227.704 225.265 227.114C225.54 226.524 225.923 226.068 226.414 225.746C226.904 225.425 227.471 225.264 228.114 225.264C228.611 225.264 229.004 225.347 229.292 225.513C229.584 225.675 229.806 225.861 229.958 226.07C230.114 226.275 230.235 226.444 230.321 226.577H230.421V222.818H231.594V233H230.461V231.827H230.321C230.235 231.966 230.113 232.142 229.953 232.354C229.794 232.562 229.567 232.75 229.272 232.915C228.977 233.078 228.585 233.159 228.094 233.159ZM228.253 232.105C228.724 232.105 229.122 231.982 229.446 231.737C229.771 231.489 230.018 231.146 230.187 230.708C230.356 230.267 230.441 229.759 230.441 229.182C230.441 228.612 230.358 228.113 230.192 227.685C230.026 227.254 229.781 226.92 229.456 226.681C229.132 226.439 228.73 226.318 228.253 226.318C227.756 226.318 227.342 226.446 227.01 226.701C226.682 226.953 226.435 227.296 226.27 227.73C226.107 228.161 226.026 228.645 226.026 229.182C226.026 229.725 226.109 230.219 226.275 230.663C226.444 231.104 226.692 231.455 227.02 231.717C227.352 231.976 227.763 232.105 228.253 232.105ZM234.065 233V222.818H235.238V226.577H235.338C235.424 226.444 235.543 226.275 235.696 226.07C235.851 225.861 236.074 225.675 236.362 225.513C236.654 225.347 237.048 225.264 237.545 225.264C238.188 225.264 238.755 225.425 239.245 225.746C239.736 226.068 240.119 226.524 240.394 227.114C240.669 227.704 240.806 228.4 240.806 229.202C240.806 230.01 240.669 230.711 240.394 231.305C240.119 231.895 239.738 232.352 239.25 232.677C238.763 232.998 238.201 233.159 237.565 233.159C237.074 233.159 236.682 233.078 236.387 232.915C236.092 232.75 235.865 232.562 235.706 232.354C235.547 232.142 235.424 231.966 235.338 231.827H235.199V233H234.065ZM235.218 229.182C235.218 229.759 235.303 230.267 235.472 230.708C235.641 231.146 235.888 231.489 236.213 231.737C236.538 231.982 236.935 232.105 237.406 232.105C237.896 232.105 238.306 231.976 238.634 231.717C238.965 231.455 239.214 231.104 239.38 230.663C239.549 230.219 239.633 229.725 239.633 229.182C239.633 228.645 239.55 228.161 239.385 227.73C239.222 227.296 238.975 226.953 238.644 226.701C238.316 226.446 237.903 226.318 237.406 226.318C236.929 226.318 236.528 226.439 236.203 226.681C235.878 226.92 235.633 227.254 235.467 227.685C235.301 228.113 235.218 228.612 235.218 229.182ZM245.703 233.159C245.014 233.159 244.409 232.995 243.889 232.667C243.372 232.339 242.967 231.88 242.676 231.29C242.387 230.7 242.243 230.01 242.243 229.222C242.243 228.426 242.387 227.732 242.676 227.138C242.967 226.545 243.372 226.085 243.889 225.756C244.409 225.428 245.014 225.264 245.703 225.264C246.393 225.264 246.996 225.428 247.513 225.756C248.033 226.085 248.438 226.545 248.726 227.138C249.018 227.732 249.164 228.426 249.164 229.222C249.164 230.01 249.018 230.7 248.726 231.29C248.438 231.88 248.033 232.339 247.513 232.667C246.996 232.995 246.393 233.159 245.703 233.159ZM245.703 232.105C246.227 232.105 246.658 231.971 246.996 231.702C247.334 231.434 247.584 231.081 247.747 230.643C247.909 230.206 247.99 229.732 247.99 229.222C247.99 228.711 247.909 228.236 247.747 227.795C247.584 227.354 247.334 226.998 246.996 226.726C246.658 226.454 246.227 226.318 245.703 226.318C245.18 226.318 244.749 226.454 244.411 226.726C244.073 226.998 243.823 227.354 243.66 227.795C243.498 228.236 243.417 228.711 243.417 229.222C243.417 229.732 243.498 230.206 243.66 230.643C243.823 231.081 244.073 231.434 244.411 231.702C244.749 231.971 245.18 232.105 245.703 232.105ZM250.955 233V225.364H252.088V226.517H252.168C252.307 226.139 252.559 225.833 252.923 225.597C253.288 225.362 253.699 225.244 254.156 225.244C254.243 225.244 254.35 225.246 254.48 225.249C254.609 225.253 254.707 225.258 254.773 225.264V226.457C254.733 226.447 254.642 226.433 254.499 226.413C254.36 226.389 254.213 226.378 254.057 226.378C253.686 226.378 253.354 226.456 253.063 226.612C252.774 226.764 252.546 226.976 252.377 227.248C252.211 227.516 252.128 227.823 252.128 228.168V233H250.955ZM259.014 236.023C258.447 236.023 257.96 235.95 257.552 235.804C257.144 235.661 256.805 235.473 256.533 235.237C256.264 235.005 256.051 234.757 255.892 234.491L256.826 233.835C256.932 233.974 257.066 234.134 257.229 234.312C257.391 234.495 257.613 234.652 257.895 234.785C258.18 234.921 258.553 234.989 259.014 234.989C259.63 234.989 260.139 234.839 260.54 234.541C260.941 234.243 261.142 233.776 261.142 233.139V231.588H261.042C260.956 231.727 260.833 231.9 260.674 232.105C260.518 232.307 260.293 232.488 259.998 232.647C259.706 232.803 259.312 232.881 258.815 232.881C258.198 232.881 257.645 232.735 257.154 232.443C256.667 232.152 256.281 231.727 255.996 231.17C255.714 230.614 255.573 229.937 255.573 229.142C255.573 228.36 255.711 227.679 255.986 227.099C256.261 226.515 256.644 226.065 257.134 225.746C257.625 225.425 258.192 225.264 258.835 225.264C259.332 225.264 259.726 225.347 260.018 225.513C260.313 225.675 260.538 225.861 260.694 226.07C260.853 226.275 260.976 226.444 261.062 226.577H261.181V225.364H262.315V233.219C262.315 233.875 262.166 234.409 261.867 234.82C261.572 235.234 261.175 235.537 260.674 235.729C260.177 235.925 259.624 236.023 259.014 236.023ZM258.974 231.827C259.445 231.827 259.842 231.719 260.167 231.504C260.492 231.288 260.739 230.978 260.908 230.574C261.077 230.17 261.161 229.686 261.161 229.122C261.161 228.572 261.079 228.086 260.913 227.665C260.747 227.245 260.502 226.915 260.177 226.676C259.852 226.437 259.451 226.318 258.974 226.318C258.477 226.318 258.062 226.444 257.731 226.696C257.403 226.948 257.156 227.286 256.99 227.71C256.828 228.134 256.747 228.605 256.747 229.122C256.747 229.652 256.829 230.121 256.995 230.529C257.164 230.933 257.413 231.252 257.741 231.484C258.072 231.712 258.483 231.827 258.974 231.827ZM266.71 233.179C266.226 233.179 265.787 233.088 265.392 232.906C264.998 232.72 264.685 232.453 264.453 232.105C264.221 231.754 264.105 231.33 264.105 230.832C264.105 230.395 264.191 230.04 264.363 229.768C264.535 229.493 264.766 229.278 265.054 229.122C265.343 228.966 265.661 228.85 266.009 228.774C266.36 228.695 266.713 228.632 267.068 228.585C267.532 228.526 267.908 228.481 268.196 228.451C268.488 228.418 268.7 228.363 268.833 228.287C268.968 228.211 269.036 228.078 269.036 227.889V227.849C269.036 227.359 268.902 226.978 268.634 226.706C268.369 226.434 267.966 226.298 267.426 226.298C266.865 226.298 266.426 226.421 266.108 226.666C265.79 226.911 265.566 227.173 265.437 227.452L264.323 227.054C264.522 226.59 264.787 226.229 265.119 225.97C265.454 225.708 265.818 225.526 266.213 225.423C266.61 225.317 267.001 225.264 267.386 225.264C267.631 225.264 267.913 225.294 268.231 225.354C268.552 225.41 268.862 225.528 269.161 225.707C269.462 225.886 269.713 226.156 269.911 226.517C270.11 226.878 270.21 227.362 270.21 227.969V233H269.036V231.966H268.977C268.897 232.132 268.765 232.309 268.579 232.498C268.393 232.687 268.146 232.848 267.838 232.98C267.53 233.113 267.154 233.179 266.71 233.179ZM266.889 232.125C267.353 232.125 267.744 232.034 268.062 231.852C268.383 231.669 268.625 231.434 268.788 231.146C268.954 230.857 269.036 230.554 269.036 230.236V229.162C268.987 229.222 268.877 229.276 268.708 229.326C268.543 229.372 268.35 229.414 268.132 229.45C267.916 229.483 267.706 229.513 267.5 229.54C267.298 229.563 267.134 229.583 267.008 229.599C266.703 229.639 266.418 229.704 266.153 229.793C265.891 229.879 265.679 230.01 265.517 230.186C265.357 230.358 265.278 230.594 265.278 230.892C265.278 231.3 265.429 231.608 265.73 231.817C266.035 232.022 266.421 232.125 266.889 232.125ZM272.351 233V225.364H273.485V226.517H273.564C273.703 226.139 273.955 225.833 274.32 225.597C274.685 225.362 275.096 225.244 275.553 225.244C275.639 225.244 275.747 225.246 275.876 225.249C276.005 225.253 276.103 225.258 276.169 225.264V226.457C276.13 226.447 276.038 226.433 275.896 226.413C275.757 226.389 275.609 226.378 275.453 226.378C275.082 226.378 274.751 226.456 274.459 226.612C274.171 226.764 273.942 226.976 273.773 227.248C273.607 227.516 273.525 227.823 273.525 228.168V233H272.351ZM280.529 233.159C279.794 233.159 279.159 232.997 278.625 232.672C278.095 232.344 277.686 231.886 277.397 231.3C277.112 230.71 276.97 230.024 276.97 229.241C276.97 228.459 277.112 227.77 277.397 227.173C277.686 226.573 278.087 226.106 278.6 225.771C279.118 225.433 279.721 225.264 280.41 225.264C280.808 225.264 281.201 225.33 281.588 225.463C281.976 225.596 282.329 225.811 282.647 226.109C282.966 226.404 283.219 226.795 283.408 227.283C283.597 227.77 283.691 228.37 283.691 229.082V229.58H277.805V228.565H282.498C282.498 228.134 282.412 227.75 282.24 227.412C282.071 227.074 281.829 226.807 281.514 226.612C281.202 226.416 280.834 226.318 280.41 226.318C279.943 226.318 279.538 226.434 279.197 226.666C278.859 226.895 278.599 227.193 278.417 227.561C278.234 227.929 278.143 228.323 278.143 228.744V229.42C278.143 229.997 278.243 230.486 278.441 230.887C278.644 231.285 278.924 231.588 279.282 231.797C279.64 232.002 280.056 232.105 280.529 232.105C280.838 232.105 281.116 232.062 281.365 231.976C281.617 231.886 281.834 231.754 282.016 231.578C282.198 231.399 282.339 231.177 282.439 230.912L283.572 231.23C283.453 231.615 283.252 231.953 282.971 232.244C282.689 232.533 282.341 232.758 281.926 232.92C281.512 233.08 281.047 233.159 280.529 233.159ZM289.414 233V225.364H290.587V233H289.414ZM290.01 224.091C289.782 224.091 289.584 224.013 289.419 223.857C289.256 223.701 289.175 223.514 289.175 223.295C289.175 223.077 289.256 222.889 289.419 222.734C289.584 222.578 289.782 222.5 290.01 222.5C290.239 222.5 290.435 222.578 290.597 222.734C290.763 222.889 290.846 223.077 290.846 223.295C290.846 223.514 290.763 223.701 290.597 223.857C290.435 224.013 290.239 224.091 290.01 224.091Z" fill="#171717"/>
<mask id="path-9-inside-3_4_1687" fill="white">
<path d="M56 245H384V293H56V245Z"/>
</mask>
<path d="M56 245H384V293H56V245Z" fill="#F2F2F2"/>
<path d="M384 293V292H56V293V294H384V293Z" fill="#171717" mask="url(#path-9-inside-3_4_1687)"/>
<path d="M73.8864 263.364L77.3409 273.159H77.4773L80.9318 263.364H82.4091L78.1364 275H76.6818L72.4091 263.364H73.8864ZM85.9673 275.205C85.4143 275.205 84.9124 275.1 84.4616 274.892C84.0109 274.68 83.6529 274.375 83.3878 273.977C83.1226 273.576 82.9901 273.091 82.9901 272.523C82.9901 272.023 83.0885 271.617 83.2855 271.307C83.4825 270.992 83.7457 270.746 84.0753 270.568C84.4048 270.39 84.7685 270.258 85.1662 270.17C85.5677 270.08 85.9711 270.008 86.3764 269.955C86.9067 269.886 87.3366 269.835 87.6662 269.801C87.9995 269.763 88.242 269.701 88.3935 269.614C88.5488 269.527 88.6264 269.375 88.6264 269.159V269.114C88.6264 268.553 88.473 268.117 88.1662 267.807C87.8632 267.496 87.4029 267.341 86.7855 267.341C86.1454 267.341 85.6435 267.481 85.2798 267.761C84.9162 268.042 84.6605 268.341 84.5128 268.659L83.2401 268.205C83.4673 267.674 83.7704 267.261 84.1491 266.966C84.5317 266.667 84.9484 266.458 85.3991 266.341C85.8537 266.22 86.3007 266.159 86.7401 266.159C87.0204 266.159 87.3423 266.193 87.706 266.261C88.0734 266.326 88.4276 266.46 88.7685 266.665C89.1132 266.869 89.3991 267.178 89.6264 267.591C89.8537 268.004 89.9673 268.557 89.9673 269.25V275H88.6264V273.818H88.5582C88.4673 274.008 88.3158 274.21 88.1037 274.426C87.8916 274.642 87.6094 274.826 87.2571 274.977C86.9048 275.129 86.4749 275.205 85.9673 275.205ZM86.1719 274C86.7022 274 87.1491 273.896 87.5128 273.688C87.8802 273.479 88.1567 273.21 88.3423 272.881C88.5317 272.551 88.6264 272.205 88.6264 271.841V270.614C88.5696 270.682 88.4446 270.744 88.2514 270.801C88.062 270.854 87.8423 270.902 87.5923 270.943C87.3461 270.981 87.1056 271.015 86.8707 271.045C86.6397 271.072 86.4522 271.095 86.3082 271.114C85.9598 271.159 85.634 271.233 85.331 271.335C85.0317 271.434 84.7893 271.583 84.6037 271.784C84.4219 271.981 84.331 272.25 84.331 272.591C84.331 273.057 84.5033 273.409 84.848 273.648C85.1965 273.883 85.6378 274 86.1719 274ZM85.1946 264.818C84.956 264.818 84.7438 264.727 84.5582 264.545C84.3764 264.36 84.2855 264.148 84.2855 263.909C84.2855 263.648 84.3764 263.432 84.5582 263.261C84.7438 263.087 84.956 263 85.1946 263C85.456 263 85.6719 263.087 85.8423 263.261C86.0166 263.432 86.1037 263.648 86.1037 263.909C86.1037 264.148 86.0166 264.36 85.8423 264.545C85.6719 264.727 85.456 264.818 85.1946 264.818ZM88.4673 264.818C88.2287 264.818 88.0166 264.727 87.831 264.545C87.6491 264.36 87.5582 264.148 87.5582 263.909C87.5582 263.648 87.6491 263.432 87.831 263.261C88.0166 263.087 88.2287 263 88.4673 263C88.7287 263 88.9446 263.087 89.1151 263.261C89.2893 263.432 89.3764 263.648 89.3764 263.909C89.3764 264.148 89.2893 264.36 89.1151 264.545C88.9446 264.727 88.7287 264.818 88.4673 264.818ZM93.7557 263.364V275H92.4148V263.364H93.7557ZM96.2116 266.273H97.5526V275.636C97.5526 276.174 97.4598 276.64 97.2741 277.034C97.0923 277.428 96.8158 277.733 96.4446 277.949C96.0772 278.165 95.6132 278.273 95.0526 278.273C95.0071 278.273 94.9616 278.273 94.9162 278.273C94.8707 278.273 94.8253 278.273 94.7798 278.273V277.023C94.8253 277.023 94.867 277.023 94.9048 277.023C94.9427 277.023 94.9844 277.023 95.0298 277.023C95.4389 277.023 95.7382 276.902 95.9276 276.659C96.117 276.42 96.2116 276.08 96.2116 275.636V266.273ZM96.8707 264.818C96.6094 264.818 96.384 264.729 96.1946 264.551C96.009 264.373 95.9162 264.159 95.9162 263.909C95.9162 263.659 96.009 263.445 96.1946 263.267C96.384 263.089 96.6094 263 96.8707 263C97.1321 263 97.3556 263.089 97.5412 263.267C97.7306 263.445 97.8253 263.659 97.8253 263.909C97.8253 264.159 97.7306 264.373 97.5412 264.551C97.3556 264.729 97.1321 264.818 96.8707 264.818ZM105.849 263.364V275H104.509V263.364H105.849ZM110.874 275.205C110.321 275.205 109.819 275.1 109.368 274.892C108.917 274.68 108.559 274.375 108.294 273.977C108.029 273.576 107.896 273.091 107.896 272.523C107.896 272.023 107.995 271.617 108.192 271.307C108.389 270.992 108.652 270.746 108.982 270.568C109.311 270.39 109.675 270.258 110.072 270.17C110.474 270.08 110.877 270.008 111.283 269.955C111.813 269.886 112.243 269.835 112.572 269.801C112.906 269.763 113.148 269.701 113.3 269.614C113.455 269.527 113.533 269.375 113.533 269.159V269.114C113.533 268.553 113.379 268.117 113.072 267.807C112.769 267.496 112.309 267.341 111.692 267.341C111.052 267.341 110.55 267.481 110.186 267.761C109.822 268.042 109.567 268.341 109.419 268.659L108.146 268.205C108.374 267.674 108.677 267.261 109.055 266.966C109.438 266.667 109.855 266.458 110.305 266.341C110.76 266.22 111.207 266.159 111.646 266.159C111.927 266.159 112.249 266.193 112.612 266.261C112.98 266.326 113.334 266.46 113.675 266.665C114.019 266.869 114.305 267.178 114.533 267.591C114.76 268.004 114.874 268.557 114.874 269.25V275H113.533V273.818H113.464C113.374 274.008 113.222 274.21 113.01 274.426C112.798 274.642 112.516 274.826 112.163 274.977C111.811 275.129 111.381 275.205 110.874 275.205ZM111.078 274C111.608 274 112.055 273.896 112.419 273.688C112.786 273.479 113.063 273.21 113.249 272.881C113.438 272.551 113.533 272.205 113.533 271.841V270.614C113.476 270.682 113.351 270.744 113.158 270.801C112.968 270.854 112.749 270.902 112.499 270.943C112.252 270.981 112.012 271.015 111.777 271.045C111.546 271.072 111.358 271.095 111.214 271.114C110.866 271.159 110.54 271.233 110.237 271.335C109.938 271.434 109.696 271.583 109.51 271.784C109.328 271.981 109.237 272.25 109.237 272.591C109.237 273.057 109.41 273.409 109.754 273.648C110.103 273.883 110.544 274 111.078 274ZM118.662 269.75V275H117.321V266.273H118.616V267.636H118.73C118.935 267.193 119.245 266.837 119.662 266.568C120.079 266.295 120.616 266.159 121.276 266.159C121.866 266.159 122.384 266.28 122.827 266.523C123.27 266.761 123.615 267.125 123.861 267.614C124.107 268.098 124.23 268.712 124.23 269.455V275H122.889V269.545C122.889 268.86 122.711 268.326 122.355 267.943C121.999 267.557 121.51 267.364 120.889 267.364C120.461 267.364 120.079 267.456 119.741 267.642C119.408 267.828 119.145 268.098 118.952 268.455C118.759 268.811 118.662 269.242 118.662 269.75ZM129.976 275.182C129.249 275.182 128.607 274.998 128.05 274.631C127.493 274.259 127.057 273.737 126.743 273.062C126.429 272.384 126.271 271.583 126.271 270.659C126.271 269.742 126.429 268.947 126.743 268.273C127.057 267.598 127.495 267.078 128.055 266.71C128.616 266.343 129.264 266.159 129.999 266.159C130.567 266.159 131.016 266.254 131.345 266.443C131.679 266.629 131.932 266.841 132.107 267.08C132.285 267.314 132.423 267.508 132.521 267.659H132.635V263.364H133.976V275H132.68V273.659H132.521C132.423 273.818 132.283 274.019 132.101 274.261C131.919 274.5 131.66 274.714 131.322 274.903C130.985 275.089 130.536 275.182 129.976 275.182ZM130.158 273.977C130.696 273.977 131.15 273.837 131.521 273.557C131.893 273.273 132.175 272.881 132.368 272.381C132.561 271.877 132.658 271.295 132.658 270.636C132.658 269.985 132.563 269.415 132.374 268.926C132.184 268.434 131.904 268.051 131.533 267.778C131.161 267.502 130.703 267.364 130.158 267.364C129.589 267.364 129.116 267.509 128.737 267.801C128.362 268.089 128.08 268.481 127.891 268.977C127.705 269.47 127.612 270.023 127.612 270.636C127.612 271.258 127.707 271.822 127.896 272.33C128.089 272.833 128.374 273.235 128.749 273.534C129.127 273.83 129.597 273.977 130.158 273.977Z" fill="#171717"/>
<path d="M355 266.5L360 271.5L365 266.5" stroke="#171717" stroke-width="1.66667" stroke-linecap="round" stroke-linejoin="round"/>
<rect width="109" height="48" transform="translate(56 325)" fill="#143C50"/>
<path d="M98.8189 343.364V355H97.2053L91.2905 346.466H91.1825V355H89.4268V343.364H91.0518L96.9723 351.909H97.0803V343.364H98.8189ZM103.783 355.193C103.23 355.193 102.73 355.091 102.283 354.886C101.836 354.678 101.482 354.377 101.221 353.983C100.963 353.589 100.835 353.106 100.835 352.534C100.835 352.042 100.929 351.636 101.119 351.318C101.308 351 101.564 350.748 101.886 350.562C102.208 350.377 102.567 350.237 102.965 350.142C103.363 350.047 103.768 349.975 104.181 349.926C104.704 349.866 105.128 349.816 105.454 349.778C105.78 349.737 106.016 349.67 106.164 349.58C106.312 349.489 106.386 349.341 106.386 349.136V349.097C106.386 348.6 106.246 348.216 105.965 347.943C105.689 347.67 105.276 347.534 104.727 347.534C104.155 347.534 103.704 347.661 103.374 347.915C103.049 348.165 102.823 348.443 102.698 348.75L101.102 348.386C101.291 347.856 101.567 347.428 101.931 347.102C102.299 346.773 102.721 346.534 103.198 346.386C103.675 346.235 104.177 346.159 104.704 346.159C105.052 346.159 105.422 346.201 105.812 346.284C106.206 346.364 106.573 346.511 106.914 346.727C107.259 346.943 107.541 347.252 107.761 347.653C107.98 348.051 108.09 348.568 108.09 349.205V355H106.431V353.807H106.363C106.253 354.027 106.088 354.242 105.869 354.455C105.649 354.667 105.367 354.843 105.022 354.983C104.677 355.123 104.264 355.193 103.783 355.193ZM104.153 353.83C104.622 353.83 105.024 353.737 105.357 353.551C105.694 353.366 105.95 353.123 106.124 352.824C106.302 352.521 106.391 352.197 106.391 351.852V350.727C106.331 350.788 106.213 350.845 106.039 350.898C105.869 350.947 105.674 350.991 105.454 351.028C105.234 351.062 105.02 351.095 104.812 351.125C104.603 351.152 104.429 351.174 104.289 351.193C103.96 351.235 103.658 351.305 103.386 351.403C103.117 351.502 102.901 351.644 102.738 351.83C102.579 352.011 102.499 352.254 102.499 352.557C102.499 352.977 102.655 353.295 102.965 353.511C103.276 353.723 103.672 353.83 104.153 353.83ZM103.124 344.903C102.855 344.903 102.621 344.805 102.42 344.608C102.219 344.407 102.119 344.176 102.119 343.915C102.119 343.631 102.219 343.394 102.42 343.205C102.621 343.015 102.855 342.92 103.124 342.92C103.408 342.92 103.645 343.015 103.835 343.205C104.028 343.394 104.124 343.631 104.124 343.915C104.124 344.176 104.028 344.407 103.835 344.608C103.645 344.805 103.408 344.903 103.124 344.903ZM106.465 344.903C106.196 344.903 105.961 344.805 105.761 344.608C105.56 344.407 105.46 344.176 105.46 343.915C105.46 343.631 105.56 343.394 105.761 343.205C105.961 343.015 106.196 342.92 106.465 342.92C106.749 342.92 106.986 343.015 107.175 343.205C107.369 343.394 107.465 343.631 107.465 343.915C107.465 344.176 107.369 344.407 107.175 344.608C106.986 344.805 106.749 344.903 106.465 344.903ZM116.893 348.403L115.353 348.676C115.289 348.479 115.186 348.292 115.046 348.114C114.91 347.936 114.724 347.79 114.489 347.676C114.254 347.562 113.961 347.506 113.609 347.506C113.128 347.506 112.726 347.614 112.404 347.83C112.082 348.042 111.921 348.316 111.921 348.653C111.921 348.945 112.029 349.18 112.245 349.358C112.461 349.536 112.809 349.682 113.29 349.795L114.677 350.114C115.48 350.299 116.078 350.585 116.472 350.972C116.866 351.358 117.063 351.86 117.063 352.477C117.063 353 116.912 353.466 116.609 353.875C116.309 354.28 115.891 354.598 115.353 354.83C114.819 355.061 114.2 355.176 113.495 355.176C112.518 355.176 111.72 354.968 111.103 354.551C110.486 354.131 110.107 353.534 109.967 352.761L111.609 352.511C111.711 352.939 111.921 353.263 112.239 353.483C112.558 353.699 112.972 353.807 113.484 353.807C114.04 353.807 114.486 353.691 114.819 353.46C115.152 353.225 115.319 352.939 115.319 352.602C115.319 352.33 115.217 352.1 115.012 351.915C114.811 351.729 114.503 351.589 114.086 351.494L112.609 351.17C111.794 350.985 111.192 350.689 110.802 350.284C110.415 349.879 110.222 349.366 110.222 348.744C110.222 348.229 110.366 347.778 110.654 347.392C110.942 347.006 111.34 346.705 111.847 346.489C112.355 346.269 112.936 346.159 113.592 346.159C114.535 346.159 115.277 346.364 115.819 346.773C116.361 347.178 116.719 347.722 116.893 348.403ZM123.005 346.273V347.636H118.238V346.273H123.005ZM119.516 344.182H121.215V352.438C121.215 352.767 121.264 353.015 121.363 353.182C121.461 353.345 121.588 353.456 121.744 353.517C121.903 353.574 122.075 353.602 122.261 353.602C122.397 353.602 122.516 353.593 122.619 353.574C122.721 353.555 122.8 353.54 122.857 353.528L123.164 354.932C123.066 354.97 122.925 355.008 122.744 355.045C122.562 355.087 122.335 355.11 122.062 355.114C121.615 355.121 121.198 355.042 120.812 354.875C120.425 354.708 120.113 354.451 119.874 354.102C119.636 353.754 119.516 353.316 119.516 352.79V344.182ZM127.424 355.193C126.871 355.193 126.371 355.091 125.924 354.886C125.477 354.678 125.123 354.377 124.862 353.983C124.604 353.589 124.475 353.106 124.475 352.534C124.475 352.042 124.57 351.636 124.759 351.318C124.949 351 125.204 350.748 125.526 350.562C125.848 350.377 126.208 350.237 126.606 350.142C127.004 350.047 127.409 349.975 127.822 349.926C128.344 349.866 128.769 349.816 129.094 349.778C129.42 349.737 129.657 349.67 129.805 349.58C129.952 349.489 130.026 349.341 130.026 349.136V349.097C130.026 348.6 129.886 348.216 129.606 347.943C129.329 347.67 128.916 347.534 128.367 347.534C127.795 347.534 127.344 347.661 127.015 347.915C126.689 348.165 126.464 348.443 126.339 348.75L124.742 348.386C124.932 347.856 125.208 347.428 125.572 347.102C125.939 346.773 126.362 346.534 126.839 346.386C127.316 346.235 127.818 346.159 128.344 346.159C128.693 346.159 129.062 346.201 129.452 346.284C129.846 346.364 130.214 346.511 130.555 346.727C130.899 346.943 131.182 347.252 131.401 347.653C131.621 348.051 131.731 348.568 131.731 349.205V355H130.072V353.807H130.004C129.894 354.027 129.729 354.242 129.509 354.455C129.29 354.667 129.007 354.843 128.663 354.983C128.318 355.123 127.905 355.193 127.424 355.193ZM127.793 353.83C128.263 353.83 128.665 353.737 128.998 353.551C129.335 353.366 129.591 353.123 129.765 352.824C129.943 352.521 130.032 352.197 130.032 351.852V350.727C129.971 350.788 129.854 350.845 129.68 350.898C129.509 350.947 129.314 350.991 129.094 351.028C128.875 351.062 128.661 351.095 128.452 351.125C128.244 351.152 128.07 351.174 127.93 351.193C127.6 351.235 127.299 351.305 127.026 351.403C126.757 351.502 126.541 351.644 126.379 351.83C126.219 352.011 126.14 352.254 126.14 352.557C126.14 352.977 126.295 353.295 126.606 353.511C126.916 353.723 127.312 353.83 127.793 353.83Z" fill="white"/>
<path d="M34.1083 31L27.4417 19.3333C27.2963 19.0769 27.0855 18.8635 26.8308 18.7151C26.576 18.5666 26.2865 18.4884 25.9917 18.4884C25.6968 18.4884 25.4073 18.5666 25.1526 18.7151C24.8978 18.8635 24.687 19.0769 24.5417 19.3333L17.875 31C17.7281 31.2545 17.651 31.5433 17.6517 31.8371C17.6523 32.1309 17.7307 32.4194 17.8787 32.6732C18.0268 32.927 18.2393 33.1372 18.4947 33.2824C18.7502 33.4276 19.0395 33.5027 19.3333 33.5H32.6667C32.9591 33.4997 33.2463 33.4225 33.4994 33.2761C33.7525 33.1297 33.9627 32.9193 34.1088 32.6659C34.2548 32.4126 34.3317 32.1253 34.3316 31.8329C34.3316 31.5405 34.2545 31.2533 34.1083 31Z" stroke="#E62323" stroke-width="1.66667" stroke-linecap="round" stroke-linejoin="round"/>
<path d="M26 23.5V26.8333" stroke="#E62323" stroke-width="1.66667" stroke-linecap="round" stroke-linejoin="round"/>
<path d="M26 30.1667H26.0083" stroke="#E62323" stroke-width="1.66667" stroke-linecap="round" stroke-linejoin="round"/>
</svg>
