<svg width="440" height="412" viewBox="0 0 440 412" fill="none" xmlns="http://www.w3.org/2000/svg">
<mask id="path-1-inside-1_4_1692" fill="white">
<path d="M0 0H440V412H0V0Z"/>
</mask>
<path d="M0 0H440V412H0V0Z" fill="white"/>
<path d="M0 0V4H440V0V-4H0V0Z" fill="#008D3C" mask="url(#path-1-inside-1_4_1692)"/>
<path d="M57.2784 81V69.3636H64.4943V70.875H59.0341V74.4205H63.9773V75.9261H59.0341V81H57.2784ZM69.5526 81.1761C68.7344 81.1761 68.0204 80.9886 67.4105 80.6136C66.8007 80.2386 66.3272 79.714 65.9901 79.0398C65.6529 78.3655 65.4844 77.5777 65.4844 76.6761C65.4844 75.7708 65.6529 74.9792 65.9901 74.3011C66.3272 73.6231 66.8007 73.0966 67.4105 72.7216C68.0204 72.3466 68.7344 72.1591 69.5526 72.1591C70.3707 72.1591 71.0848 72.3466 71.6946 72.7216C72.3045 73.0966 72.7779 73.6231 73.1151 74.3011C73.4522 74.9792 73.6207 75.7708 73.6207 76.6761C73.6207 77.5777 73.4522 78.3655 73.1151 79.0398C72.7779 79.714 72.3045 80.2386 71.6946 80.6136C71.0848 80.9886 70.3707 81.1761 69.5526 81.1761ZM69.5582 79.75C70.0885 79.75 70.5279 79.6098 70.8764 79.3295C71.2249 79.0492 71.4825 78.6761 71.6491 78.2102C71.8196 77.7443 71.9048 77.2311 71.9048 76.6705C71.9048 76.1136 71.8196 75.6023 71.6491 75.1364C71.4825 74.6667 71.2249 74.2898 70.8764 74.0057C70.5279 73.7216 70.0885 73.5795 69.5582 73.5795C69.0241 73.5795 68.581 73.7216 68.2287 74.0057C67.8802 74.2898 67.6207 74.6667 67.4503 75.1364C67.2836 75.6023 67.2003 76.1136 67.2003 76.6705C67.2003 77.2311 67.2836 77.7443 67.4503 78.2102C67.6207 78.6761 67.8802 79.0492 68.2287 79.3295C68.581 79.6098 69.0241 79.75 69.5582 79.75ZM67.8821 70.9034C67.617 70.9034 67.384 70.8049 67.1832 70.608C66.9825 70.4072 66.8821 70.1761 66.8821 69.9148C66.8821 69.6307 66.9825 69.3939 67.1832 69.2045C67.384 69.0152 67.617 68.9205 67.8821 68.9205C68.1662 68.9205 68.4029 69.0152 68.5923 69.2045C68.7855 69.3939 68.8821 69.6307 68.8821 69.9148C68.8821 70.1761 68.7855 70.4072 68.5923 70.608C68.4029 70.8049 68.1662 70.9034 67.8821 70.9034ZM71.223 70.9034C70.9579 70.9034 70.7249 70.8049 70.5241 70.608C70.3234 70.4072 70.223 70.1761 70.223 69.9148C70.223 69.6307 70.3234 69.3939 70.5241 69.2045C70.7249 69.0152 70.9579 68.9205 71.223 68.9205C71.5071 68.9205 71.7438 69.0152 71.9332 69.2045C72.1264 69.3939 72.223 69.6307 72.223 69.9148C72.223 70.1761 72.1264 70.4072 71.9332 70.608C71.7438 70.8049 71.5071 70.9034 71.223 70.9034ZM75.517 81V72.2727H77.1591V73.6591H77.25C77.4091 73.1894 77.6894 72.8201 78.0909 72.5511C78.4962 72.2784 78.9545 72.142 79.4659 72.142C79.572 72.142 79.697 72.1458 79.8409 72.1534C79.9886 72.161 80.1042 72.1705 80.1875 72.1818V73.8068C80.1193 73.7879 79.9981 73.767 79.8239 73.7443C79.6496 73.7178 79.4754 73.7045 79.3011 73.7045C78.8996 73.7045 78.5417 73.7898 78.2273 73.9602C77.9167 74.1269 77.6705 74.3598 77.4886 74.6591C77.3068 74.9545 77.2159 75.2917 77.2159 75.6705V81H75.517ZM83.3565 75.8182V81H81.6577V72.2727H83.2884V73.6932H83.3963C83.5971 73.2311 83.9115 72.8598 84.3395 72.5795C84.7713 72.2992 85.3149 72.1591 85.9702 72.1591C86.5649 72.1591 87.0857 72.2841 87.5327 72.5341C87.9796 72.7803 88.3262 73.1477 88.5724 73.6364C88.8187 74.125 88.9418 74.7292 88.9418 75.4489V81H87.2429V75.6534C87.2429 75.0208 87.0781 74.5265 86.7486 74.1705C86.419 73.8106 85.9664 73.6307 85.3906 73.6307C84.9967 73.6307 84.6463 73.7159 84.3395 73.8864C84.0365 74.0568 83.7959 74.3068 83.6179 74.6364C83.4437 74.9621 83.3565 75.3561 83.3565 75.8182ZM93.7599 81.1932C93.2069 81.1932 92.7069 81.0909 92.2599 80.8864C91.813 80.678 91.4588 80.3769 91.1974 79.983C90.9399 79.589 90.8111 79.1061 90.8111 78.5341C90.8111 78.0417 90.9058 77.6364 91.0952 77.3182C91.2846 77 91.5402 76.7481 91.8622 76.5625C92.1842 76.3769 92.544 76.2367 92.9418 76.142C93.3395 76.0473 93.7448 75.9754 94.1577 75.9261C94.6804 75.8655 95.1046 75.8163 95.4304 75.7784C95.7562 75.7367 95.9929 75.6705 96.1406 75.5795C96.2884 75.4886 96.3622 75.3409 96.3622 75.1364V75.0966C96.3622 74.6004 96.2221 74.2159 95.9418 73.9432C95.6652 73.6705 95.2524 73.5341 94.7031 73.5341C94.1312 73.5341 93.6804 73.661 93.3509 73.9148C93.0251 74.1648 92.7997 74.4432 92.6747 74.75L91.0781 74.3864C91.2675 73.8561 91.544 73.428 91.9077 73.1023C92.2751 72.7727 92.6974 72.5341 93.1747 72.3864C93.652 72.2348 94.1539 72.1591 94.6804 72.1591C95.0289 72.1591 95.3982 72.2008 95.7884 72.2841C96.1823 72.3636 96.5497 72.5114 96.8906 72.7273C97.2353 72.9432 97.5175 73.2519 97.7372 73.6534C97.9569 74.0511 98.0668 74.5682 98.0668 75.2045V81H96.4077V79.8068H96.3395C96.2296 80.0265 96.0649 80.2424 95.8452 80.4545C95.6255 80.6667 95.3433 80.8428 94.9986 80.983C94.6539 81.1231 94.241 81.1932 93.7599 81.1932ZM94.1293 79.8295C94.599 79.8295 95.0005 79.7367 95.3338 79.5511C95.6709 79.3655 95.9266 79.1231 96.1009 78.8239C96.2789 78.5208 96.3679 78.197 96.3679 77.8523V76.7273C96.3073 76.7879 96.1899 76.8447 96.0156 76.8977C95.8452 76.947 95.6501 76.9905 95.4304 77.0284C95.2107 77.0625 94.9967 77.0947 94.7884 77.125C94.58 77.1515 94.4058 77.1742 94.2656 77.1932C93.9361 77.2348 93.6349 77.3049 93.3622 77.4034C93.0933 77.5019 92.8774 77.6439 92.7145 77.8295C92.5554 78.0114 92.4759 78.2538 92.4759 78.5568C92.4759 78.9773 92.6312 79.2955 92.9418 79.5114C93.2524 79.7235 93.6482 79.8295 94.1293 79.8295ZM100.33 81V72.2727H101.96V73.6932H102.068C102.25 73.2121 102.547 72.8371 102.96 72.5682C103.373 72.2955 103.867 72.1591 104.443 72.1591C105.027 72.1591 105.515 72.2955 105.909 72.5682C106.307 72.8409 106.6 73.2159 106.79 73.6932H106.881C107.089 73.2273 107.42 72.8561 107.875 72.5795C108.33 72.2992 108.871 72.1591 109.5 72.1591C110.292 72.1591 110.938 72.4072 111.438 72.9034C111.941 73.3996 112.193 74.1477 112.193 75.1477V81H110.494V75.3068C110.494 74.7159 110.333 74.2879 110.011 74.0227C109.689 73.7576 109.305 73.625 108.858 73.625C108.305 73.625 107.875 73.7955 107.568 74.1364C107.261 74.4735 107.108 74.9072 107.108 75.4375V81H105.415V75.1989C105.415 74.7254 105.267 74.3447 104.972 74.0568C104.676 73.7689 104.292 73.625 103.818 73.625C103.496 73.625 103.199 73.7102 102.926 73.8807C102.657 74.0473 102.439 74.2803 102.273 74.5795C102.11 74.8788 102.028 75.2254 102.028 75.6193V81H100.33ZM116.169 75.8182V81H114.47V72.2727H116.101V73.6932H116.209C116.41 73.2311 116.724 72.8598 117.152 72.5795C117.584 72.2992 118.127 72.1591 118.783 72.1591C119.377 72.1591 119.898 72.2841 120.345 72.5341C120.792 72.7803 121.139 73.1477 121.385 73.6364C121.631 74.125 121.754 74.7292 121.754 75.4489V81H120.055V75.6534C120.055 75.0208 119.891 74.5265 119.561 74.1705C119.232 73.8106 118.779 73.6307 118.203 73.6307C117.809 73.6307 117.459 73.7159 117.152 73.8864C116.849 74.0568 116.608 74.3068 116.43 74.6364C116.256 74.9621 116.169 75.3561 116.169 75.8182Z" fill="#171717"/>
<path d="M58.4659 92.8182V103H57.233V92.8182H58.4659ZM61.9522 98.4062V103H60.7789V95.3636H61.9125V96.5568H62.0119C62.1909 96.169 62.4627 95.8575 62.8272 95.6222C63.1918 95.3835 63.6625 95.2642 64.2392 95.2642C64.7562 95.2642 65.2086 95.3703 65.5964 95.5824C65.9842 95.7912 66.2858 96.1094 66.5012 96.5369C66.7167 96.9612 66.8244 97.4981 66.8244 98.1477V103H65.6511V98.2273C65.6511 97.6274 65.4953 97.16 65.1838 96.8253C64.8722 96.4872 64.4447 96.3182 63.9011 96.3182C63.5266 96.3182 63.1918 96.3994 62.8968 96.5618C62.6052 96.7242 62.3748 96.9612 62.2058 97.2727C62.0368 97.5843 61.9522 97.9621 61.9522 98.4062ZM70.0621 100.216L70.0423 98.7642H70.2809L73.6218 95.3636H75.0735L71.5138 98.9631H71.4144L70.0621 100.216ZM68.9684 103V92.8182H70.1417V103H68.9684ZM73.8207 103L70.8377 99.2216L71.6729 98.4062L75.3121 103H73.8207ZM77.7569 92.8182V103H76.5836V92.8182H77.7569ZM84.7184 99.8778V95.3636H85.8917V103H84.7184V101.707H84.6388C84.4599 102.095 84.1815 102.425 83.8036 102.697C83.4258 102.965 82.9485 103.099 82.3718 103.099C81.8945 103.099 81.4703 102.995 81.0991 102.786C80.7279 102.574 80.4362 102.256 80.2241 101.832C80.012 101.404 79.9059 100.866 79.9059 100.216V95.3636H81.0792V100.136C81.0792 100.693 81.235 101.137 81.5465 101.469C81.8614 101.8 82.2624 101.966 82.7496 101.966C83.0413 101.966 83.338 101.891 83.6396 101.742C83.9445 101.593 84.1997 101.364 84.4052 101.056C84.614 100.748 84.7184 100.355 84.7184 99.8778ZM93.4498 97.0739L92.3958 97.3722C92.3295 97.1965 92.2317 97.0258 92.1025 96.8601C91.9765 96.6911 91.8042 96.5518 91.5854 96.4425C91.3667 96.3331 91.0866 96.2784 90.7452 96.2784C90.2779 96.2784 89.8884 96.3861 89.5769 96.6016C89.2686 96.8137 89.1145 97.0838 89.1145 97.4119C89.1145 97.7036 89.2206 97.9339 89.4327 98.103C89.6448 98.272 89.9763 98.4129 90.427 98.5256L91.5605 98.804C92.2433 98.9697 92.7521 99.2232 93.0868 99.5646C93.4216 99.9027 93.589 100.339 93.589 100.872C93.589 101.31 93.463 101.701 93.2111 102.045C92.9625 102.39 92.6145 102.662 92.1671 102.861C91.7196 103.06 91.1993 103.159 90.606 103.159C89.8271 103.159 89.1825 102.99 88.6721 102.652C88.1616 102.314 87.8385 101.82 87.7026 101.17L88.8162 100.892C88.9223 101.303 89.1228 101.611 89.4178 101.817C89.7161 102.022 90.1055 102.125 90.5861 102.125C91.133 102.125 91.5672 102.009 91.8887 101.777C92.2135 101.542 92.3759 101.26 92.3759 100.932C92.3759 100.667 92.2831 100.445 92.0975 100.266C91.9119 100.083 91.6268 99.9474 91.2424 99.858L89.9696 99.5597C89.2703 99.3939 88.7566 99.1371 88.4284 98.7891C88.1036 98.4377 87.9412 97.9986 87.9412 97.4716C87.9412 97.0407 88.0622 96.6596 88.3042 96.3281C88.5494 95.9967 88.8825 95.7365 89.3034 95.5476C89.7277 95.3587 90.2083 95.2642 90.7452 95.2642C91.5009 95.2642 92.0942 95.4299 92.525 95.7614C92.9592 96.0928 93.2675 96.5303 93.4498 97.0739ZM95.3551 103V95.3636H96.5284V103H95.3551ZM95.9517 94.0909C95.723 94.0909 95.5258 94.013 95.3601 93.8572C95.1977 93.7015 95.1165 93.5142 95.1165 93.2955C95.1165 93.0767 95.1977 92.8894 95.3601 92.7337C95.5258 92.5779 95.723 92.5 95.9517 92.5C96.1804 92.5 96.3759 92.5779 96.5384 92.7337C96.7041 92.8894 96.7869 93.0767 96.7869 93.2955C96.7869 93.5142 96.7041 93.7015 96.5384 93.8572C96.3759 94.013 96.1804 94.0909 95.9517 94.0909ZM104.922 95.3636L102.098 103H100.905L98.0808 95.3636H99.3535L101.461 101.449H101.541L103.649 95.3636H104.922ZM109.399 103.159C108.663 103.159 108.028 102.997 107.494 102.672C106.964 102.344 106.555 101.886 106.267 101.3C105.981 100.71 105.839 100.024 105.839 99.2415C105.839 98.4593 105.981 97.7699 106.267 97.1733C106.555 96.5734 106.956 96.1061 107.47 95.7713C107.987 95.4332 108.59 95.2642 109.279 95.2642C109.677 95.2642 110.07 95.3305 110.458 95.4631C110.845 95.5956 111.198 95.8111 111.517 96.1094C111.835 96.4044 112.088 96.7955 112.277 97.2827C112.466 97.7699 112.561 98.3698 112.561 99.0824V99.5795H106.674V98.5653H111.367C111.367 98.1345 111.281 97.75 111.109 97.4119C110.94 97.0739 110.698 96.8071 110.383 96.6115C110.071 96.416 109.704 96.3182 109.279 96.3182C108.812 96.3182 108.408 96.4342 108.066 96.6662C107.728 96.8949 107.468 97.1932 107.286 97.5611C107.103 97.929 107.012 98.3234 107.012 98.7443V99.4205C107.012 99.9972 107.112 100.486 107.311 100.887C107.513 101.285 107.793 101.588 108.151 101.797C108.509 102.002 108.925 102.105 109.399 102.105C109.707 102.105 109.985 102.062 110.234 101.976C110.486 101.886 110.703 101.754 110.885 101.578C111.067 101.399 111.208 101.177 111.308 100.912L112.441 101.23C112.322 101.615 112.121 101.953 111.84 102.244C111.558 102.533 111.21 102.758 110.796 102.92C110.381 103.08 109.916 103.159 109.399 103.159ZM118.283 103V95.3636H119.416V96.5568H119.516C119.675 96.1491 119.932 95.8326 120.286 95.6072C120.641 95.3786 121.067 95.2642 121.564 95.2642C122.068 95.2642 122.487 95.3786 122.822 95.6072C123.16 95.8326 123.423 96.1491 123.612 96.5568H123.692C123.887 96.1624 124.181 95.8492 124.572 95.6172C124.963 95.3819 125.432 95.2642 125.979 95.2642C126.662 95.2642 127.22 95.478 127.654 95.9055C128.088 96.3298 128.306 96.991 128.306 97.8892V103H127.132V97.8892C127.132 97.3258 126.978 96.9231 126.67 96.6811C126.362 96.4392 125.999 96.3182 125.581 96.3182C125.044 96.3182 124.628 96.4806 124.333 96.8054C124.038 97.1269 123.891 97.5346 123.891 98.0284V103H122.698V97.7699C122.698 97.3357 122.557 96.986 122.275 96.7209C121.993 96.4524 121.63 96.3182 121.186 96.3182C120.881 96.3182 120.596 96.3994 120.331 96.5618C120.069 96.7242 119.857 96.9496 119.695 97.2379C119.536 97.523 119.456 97.8527 119.456 98.2273V103H118.283ZM133.653 103.159C132.917 103.159 132.282 102.997 131.748 102.672C131.218 102.344 130.809 101.886 130.52 101.3C130.235 100.71 130.093 100.024 130.093 99.2415C130.093 98.4593 130.235 97.7699 130.52 97.1733C130.809 96.5734 131.21 96.1061 131.724 95.7713C132.241 95.4332 132.844 95.2642 133.533 95.2642C133.931 95.2642 134.324 95.3305 134.711 95.4631C135.099 95.5956 135.452 95.8111 135.77 96.1094C136.089 96.4044 136.342 96.7955 136.531 97.2827C136.72 97.7699 136.814 98.3698 136.814 99.0824V99.5795H130.928V98.5653H135.621C135.621 98.1345 135.535 97.75 135.363 97.4119C135.194 97.0739 134.952 96.8071 134.637 96.6115C134.325 96.416 133.957 96.3182 133.533 96.3182C133.066 96.3182 132.662 96.4342 132.32 96.6662C131.982 96.8949 131.722 97.1932 131.54 97.5611C131.357 97.929 131.266 98.3234 131.266 98.7443V99.4205C131.266 99.9972 131.366 100.486 131.564 100.887C131.767 101.285 132.047 101.588 132.405 101.797C132.763 102.002 133.179 102.105 133.653 102.105C133.961 102.105 134.239 102.062 134.488 101.976C134.74 101.886 134.957 101.754 135.139 101.578C135.321 101.399 135.462 101.177 135.562 100.912L136.695 101.23C136.576 101.615 136.375 101.953 136.094 102.244C135.812 102.533 135.464 102.758 135.05 102.92C134.635 103.08 134.17 103.159 133.653 103.159ZM139.773 92.8182V103H138.599V92.8182H139.773ZM143.095 92.8182V103H141.922V92.8182H143.095ZM147.491 103.179C147.007 103.179 146.568 103.088 146.173 102.906C145.779 102.72 145.466 102.453 145.234 102.105C145.002 101.754 144.886 101.33 144.886 100.832C144.886 100.395 144.972 100.04 145.144 99.7685C145.317 99.4934 145.547 99.2779 145.835 99.1222C146.124 98.9664 146.442 98.8504 146.79 98.7741C147.141 98.6946 147.494 98.6316 147.849 98.5852C148.313 98.5256 148.689 98.4808 148.977 98.451C149.269 98.4179 149.481 98.3632 149.614 98.2869C149.75 98.2107 149.818 98.0781 149.818 97.8892V97.8494C149.818 97.3589 149.683 96.9777 149.415 96.706C149.15 96.4342 148.747 96.2983 148.207 96.2983C147.647 96.2983 147.208 96.4209 146.889 96.6662C146.571 96.9115 146.347 97.1733 146.218 97.4517L145.105 97.054C145.303 96.59 145.569 96.2287 145.9 95.9702C146.235 95.7083 146.599 95.526 146.994 95.4233C147.392 95.3172 147.783 95.2642 148.167 95.2642C148.412 95.2642 148.694 95.294 149.012 95.3537C149.334 95.41 149.644 95.5277 149.942 95.7067C150.244 95.8857 150.494 96.1558 150.693 96.517C150.892 96.8783 150.991 97.3622 150.991 97.9688V103H149.818V101.966H149.758C149.678 102.132 149.546 102.309 149.36 102.498C149.175 102.687 148.928 102.848 148.619 102.98C148.311 103.113 147.935 103.179 147.491 103.179ZM147.67 102.125C148.134 102.125 148.525 102.034 148.843 101.852C149.165 101.669 149.407 101.434 149.569 101.146C149.735 100.857 149.818 100.554 149.818 100.236V99.1619C149.768 99.2216 149.659 99.2763 149.49 99.326C149.324 99.3724 149.132 99.4138 148.913 99.4503C148.697 99.4834 148.487 99.5133 148.281 99.5398C148.079 99.563 147.915 99.5829 147.789 99.5994C147.484 99.6392 147.199 99.7038 146.934 99.7933C146.672 99.8795 146.46 100.01 146.298 100.186C146.139 100.358 146.059 100.594 146.059 100.892C146.059 101.3 146.21 101.608 146.512 101.817C146.816 102.022 147.203 102.125 147.67 102.125ZM154.306 98.4062V103H153.132V95.3636H154.266V96.5568H154.365C154.544 96.169 154.816 95.8575 155.181 95.6222C155.545 95.3835 156.016 95.2642 156.593 95.2642C157.11 95.2642 157.562 95.3703 157.95 95.5824C158.338 95.7912 158.639 96.1094 158.855 96.5369C159.07 96.9612 159.178 97.4981 159.178 98.1477V103H158.005V98.2273C158.005 97.6274 157.849 97.16 157.537 96.8253C157.226 96.4872 156.798 96.3182 156.255 96.3182C155.88 96.3182 155.545 96.3994 155.25 96.5618C154.959 96.7242 154.728 96.9612 154.559 97.2727C154.39 97.5843 154.306 97.9621 154.306 98.4062ZM162.495 98.4062V103H161.322V95.3636H162.455V96.5568H162.555C162.734 96.169 163.006 95.8575 163.37 95.6222C163.735 95.3835 164.205 95.2642 164.782 95.2642C165.299 95.2642 165.752 95.3703 166.139 95.5824C166.527 95.7912 166.829 96.1094 167.044 96.5369C167.26 96.9612 167.367 97.4981 167.367 98.1477V103H166.194V98.2273C166.194 97.6274 166.038 97.16 165.727 96.8253C165.415 96.4872 164.988 96.3182 164.444 96.3182C164.07 96.3182 163.735 96.3994 163.44 96.5618C163.148 96.7242 162.918 96.9612 162.749 97.2727C162.58 97.5843 162.495 97.9621 162.495 98.4062ZM171.759 103.179C171.275 103.179 170.835 103.088 170.441 102.906C170.047 102.72 169.733 102.453 169.501 102.105C169.269 101.754 169.153 101.33 169.153 100.832C169.153 100.395 169.24 100.04 169.412 99.7685C169.584 99.4934 169.815 99.2779 170.103 99.1222C170.391 98.9664 170.71 98.8504 171.058 98.7741C171.409 98.6946 171.762 98.6316 172.116 98.5852C172.58 98.5256 172.957 98.4808 173.245 98.451C173.537 98.4179 173.749 98.3632 173.881 98.2869C174.017 98.2107 174.085 98.0781 174.085 97.8892V97.8494C174.085 97.3589 173.951 96.9777 173.683 96.706C173.417 96.4342 173.015 96.2983 172.474 96.2983C171.914 96.2983 171.475 96.4209 171.157 96.6662C170.839 96.9115 170.615 97.1733 170.486 97.4517L169.372 97.054C169.571 96.59 169.836 96.2287 170.168 95.9702C170.502 95.7083 170.867 95.526 171.261 95.4233C171.659 95.3172 172.05 95.2642 172.435 95.2642C172.68 95.2642 172.962 95.294 173.28 95.3537C173.601 95.41 173.911 95.5277 174.21 95.7067C174.511 95.8857 174.761 96.1558 174.96 96.517C175.159 96.8783 175.259 97.3622 175.259 97.9688V103H174.085V101.966H174.026C173.946 102.132 173.813 102.309 173.628 102.498C173.442 102.687 173.195 102.848 172.887 102.98C172.579 103.113 172.203 103.179 171.759 103.179ZM171.938 102.125C172.402 102.125 172.793 102.034 173.111 101.852C173.432 101.669 173.674 101.434 173.837 101.146C174.002 100.857 174.085 100.554 174.085 100.236V99.1619C174.036 99.2216 173.926 99.2763 173.757 99.326C173.591 99.3724 173.399 99.4138 173.18 99.4503C172.965 99.4834 172.754 99.5133 172.549 99.5398C172.347 99.563 172.183 99.5829 172.057 99.5994C171.752 99.6392 171.467 99.7038 171.202 99.7933C170.94 99.8795 170.728 100.01 170.565 100.186C170.406 100.358 170.327 100.594 170.327 100.892C170.327 101.3 170.478 101.608 170.779 101.817C171.084 102.022 171.47 102.125 171.938 102.125ZM177.4 103V95.3636H178.534V96.5568H178.633C178.792 96.1491 179.049 95.8326 179.404 95.6072C179.758 95.3786 180.184 95.2642 180.681 95.2642C181.185 95.2642 181.604 95.3786 181.939 95.6072C182.277 95.8326 182.541 96.1491 182.73 96.5568H182.809C183.005 96.1624 183.298 95.8492 183.689 95.6172C184.08 95.3819 184.549 95.2642 185.096 95.2642C185.779 95.2642 186.337 95.478 186.771 95.9055C187.206 96.3298 187.423 96.991 187.423 97.8892V103H186.249V97.8892C186.249 97.3258 186.095 96.9231 185.787 96.6811C185.479 96.4392 185.116 96.3182 184.698 96.3182C184.161 96.3182 183.745 96.4806 183.45 96.8054C183.155 97.1269 183.008 97.5346 183.008 98.0284V103H181.815V97.7699C181.815 97.3357 181.674 96.986 181.392 96.7209C181.11 96.4524 180.748 96.3182 180.303 96.3182C179.999 96.3182 179.713 96.3994 179.448 96.5618C179.186 96.7242 178.974 96.9496 178.812 97.2379C178.653 97.523 178.573 97.8527 178.573 98.2273V103H177.4ZM190.741 98.4062V103H189.568V95.3636H190.702V96.5568H190.801C190.98 96.169 191.252 95.8575 191.616 95.6222C191.981 95.3835 192.452 95.2642 193.028 95.2642C193.545 95.2642 193.998 95.3703 194.385 95.5824C194.773 95.7912 195.075 96.1094 195.29 96.5369C195.506 96.9612 195.613 97.4981 195.613 98.1477V103H194.44V98.2273C194.44 97.6274 194.284 97.16 193.973 96.8253C193.661 96.4872 193.234 96.3182 192.69 96.3182C192.316 96.3182 191.981 96.3994 191.686 96.5618C191.394 96.7242 191.164 96.9612 190.995 97.2727C190.826 97.5843 190.741 97.9621 190.741 98.4062Z" fill="#171717"/>
<mask id="path-5-inside-2_4_1692" fill="white">
<path d="M56 115H384V163H56V115Z"/>
</mask>
<path d="M56 115H384V163H56V115Z" fill="#F2F2F2"/>
<path d="M384 163V162H56V163V164H384V163Z" fill="#171717" mask="url(#path-5-inside-2_4_1692)"/>
<path d="M57.2784 211V199.364H64.5739V200.875H59.0341V204.42H64.1932V205.926H59.0341V209.489H64.642V211H57.2784ZM70.9361 202.273V203.636H66.0043V202.273H70.9361ZM67.3565 211V201.261C67.3565 200.716 67.4759 200.263 67.7145 199.903C67.9531 199.54 68.2694 199.269 68.6634 199.091C69.0573 198.909 69.4853 198.818 69.9474 198.818C70.2884 198.818 70.58 198.847 70.8224 198.903C71.0649 198.956 71.2448 199.006 71.3622 199.051L70.9645 200.426C70.8849 200.403 70.7827 200.377 70.6577 200.347C70.5327 200.312 70.3812 200.295 70.2031 200.295C69.7902 200.295 69.4948 200.398 69.3168 200.602C69.1425 200.807 69.0554 201.102 69.0554 201.489V211H67.3565ZM76.7628 202.273V203.636H71.9957V202.273H76.7628ZM73.2741 200.182H74.973V208.438C74.973 208.767 75.0223 209.015 75.1207 209.182C75.2192 209.345 75.3461 209.456 75.5014 209.517C75.6605 209.574 75.8329 209.602 76.0185 209.602C76.1548 209.602 76.2741 209.593 76.3764 209.574C76.4787 209.555 76.5582 209.54 76.6151 209.528L76.9219 210.932C76.8234 210.97 76.6832 211.008 76.5014 211.045C76.3196 211.087 76.0923 211.11 75.8196 211.114C75.3726 211.121 74.956 211.042 74.5696 210.875C74.1832 210.708 73.8707 210.451 73.6321 210.102C73.3935 209.754 73.2741 209.316 73.2741 208.79V200.182ZM82.3097 211.176C81.4498 211.176 80.7093 210.992 80.0881 210.625C79.4706 210.254 78.9934 209.733 78.6562 209.062C78.3229 208.388 78.1562 207.598 78.1562 206.693C78.1562 205.799 78.3229 205.011 78.6562 204.33C78.9934 203.648 79.4631 203.116 80.0653 202.733C80.6714 202.35 81.3797 202.159 82.1903 202.159C82.6828 202.159 83.16 202.241 83.6222 202.403C84.0843 202.566 84.4991 202.822 84.8665 203.17C85.2339 203.519 85.5237 203.972 85.7358 204.528C85.9479 205.081 86.054 205.754 86.054 206.545V207.148H79.1165V205.875H84.3892C84.3892 205.428 84.2983 205.032 84.1165 204.688C83.9347 204.339 83.679 204.064 83.3494 203.864C83.0237 203.663 82.6411 203.562 82.2017 203.562C81.7244 203.562 81.3078 203.68 80.9517 203.915C80.5994 204.146 80.3267 204.449 80.1335 204.824C79.9441 205.195 79.8494 205.598 79.8494 206.034V207.028C79.8494 207.612 79.9517 208.108 80.1562 208.517C80.3646 208.926 80.6544 209.239 81.0256 209.455C81.3968 209.667 81.8305 209.773 82.3267 209.773C82.6487 209.773 82.9422 209.727 83.2074 209.636C83.4725 209.542 83.7017 209.402 83.8949 209.216C84.0881 209.03 84.2358 208.801 84.3381 208.528L85.946 208.818C85.8172 209.292 85.5862 209.706 85.2528 210.062C84.9233 210.415 84.5085 210.689 84.0085 210.886C83.5123 211.08 82.946 211.176 82.3097 211.176ZM87.9389 211V202.273H89.581V203.659H89.6719C89.831 203.189 90.1113 202.82 90.5128 202.551C90.9181 202.278 91.3764 202.142 91.8878 202.142C91.9938 202.142 92.1188 202.146 92.2628 202.153C92.4105 202.161 92.526 202.17 92.6094 202.182V203.807C92.5412 203.788 92.42 203.767 92.2457 203.744C92.0715 203.718 91.8973 203.705 91.723 203.705C91.3215 203.705 90.9635 203.79 90.6491 203.96C90.3385 204.127 90.0923 204.36 89.9105 204.659C89.7287 204.955 89.6378 205.292 89.6378 205.67V211H87.9389ZM95.7784 205.818V211H94.0795V202.273H95.7102V203.693H95.8182C96.0189 203.231 96.3333 202.86 96.7614 202.58C97.1932 202.299 97.7367 202.159 98.392 202.159C98.9867 202.159 99.5076 202.284 99.9545 202.534C100.402 202.78 100.748 203.148 100.994 203.636C101.241 204.125 101.364 204.729 101.364 205.449V211H99.6648V205.653C99.6648 205.021 99.5 204.527 99.1705 204.17C98.8409 203.811 98.3883 203.631 97.8125 203.631C97.4186 203.631 97.0682 203.716 96.7614 203.886C96.4583 204.057 96.2178 204.307 96.0398 204.636C95.8655 204.962 95.7784 205.356 95.7784 205.818ZM106.182 211.193C105.629 211.193 105.129 211.091 104.682 210.886C104.235 210.678 103.881 210.377 103.619 209.983C103.362 209.589 103.233 209.106 103.233 208.534C103.233 208.042 103.328 207.636 103.517 207.318C103.706 207 103.962 206.748 104.284 206.562C104.606 206.377 104.966 206.237 105.364 206.142C105.761 206.047 106.167 205.975 106.58 205.926C107.102 205.866 107.527 205.816 107.852 205.778C108.178 205.737 108.415 205.67 108.562 205.58C108.71 205.489 108.784 205.341 108.784 205.136V205.097C108.784 204.6 108.644 204.216 108.364 203.943C108.087 203.67 107.674 203.534 107.125 203.534C106.553 203.534 106.102 203.661 105.773 203.915C105.447 204.165 105.222 204.443 105.097 204.75L103.5 204.386C103.689 203.856 103.966 203.428 104.33 203.102C104.697 202.773 105.119 202.534 105.597 202.386C106.074 202.235 106.576 202.159 107.102 202.159C107.451 202.159 107.82 202.201 108.21 202.284C108.604 202.364 108.972 202.511 109.312 202.727C109.657 202.943 109.939 203.252 110.159 203.653C110.379 204.051 110.489 204.568 110.489 205.205V211H108.83V209.807H108.761C108.652 210.027 108.487 210.242 108.267 210.455C108.047 210.667 107.765 210.843 107.42 210.983C107.076 211.123 106.663 211.193 106.182 211.193ZM106.551 209.83C107.021 209.83 107.422 209.737 107.756 209.551C108.093 209.366 108.348 209.123 108.523 208.824C108.701 208.521 108.79 208.197 108.79 207.852V206.727C108.729 206.788 108.612 206.845 108.438 206.898C108.267 206.947 108.072 206.991 107.852 207.028C107.633 207.062 107.419 207.095 107.21 207.125C107.002 207.152 106.828 207.174 106.688 207.193C106.358 207.235 106.057 207.305 105.784 207.403C105.515 207.502 105.299 207.644 105.136 207.83C104.977 208.011 104.898 208.254 104.898 208.557C104.898 208.977 105.053 209.295 105.364 209.511C105.674 209.723 106.07 209.83 106.551 209.83ZM112.751 211V202.273H114.382V203.693H114.49C114.672 203.212 114.969 202.837 115.382 202.568C115.795 202.295 116.289 202.159 116.865 202.159C117.448 202.159 117.937 202.295 118.331 202.568C118.729 202.841 119.022 203.216 119.212 203.693H119.303C119.511 203.227 119.842 202.856 120.297 202.58C120.751 202.299 121.293 202.159 121.922 202.159C122.714 202.159 123.359 202.407 123.859 202.903C124.363 203.4 124.615 204.148 124.615 205.148V211H122.916V205.307C122.916 204.716 122.755 204.288 122.433 204.023C122.111 203.758 121.727 203.625 121.28 203.625C120.727 203.625 120.297 203.795 119.99 204.136C119.683 204.473 119.53 204.907 119.53 205.438V211H117.837V205.199C117.837 204.725 117.689 204.345 117.393 204.057C117.098 203.769 116.714 203.625 116.24 203.625C115.918 203.625 115.621 203.71 115.348 203.881C115.079 204.047 114.861 204.28 114.695 204.58C114.532 204.879 114.45 205.225 114.45 205.619V211H112.751ZM128.591 205.818V211H126.892V202.273H128.523V203.693H128.631C128.831 203.231 129.146 202.86 129.574 202.58C130.006 202.299 130.549 202.159 131.205 202.159C131.799 202.159 132.32 202.284 132.767 202.534C133.214 202.78 133.561 203.148 133.807 203.636C134.053 204.125 134.176 204.729 134.176 205.449V211H132.477V205.653C132.477 205.021 132.313 204.527 131.983 204.17C131.653 203.811 131.201 203.631 130.625 203.631C130.231 203.631 129.881 203.716 129.574 203.886C129.271 204.057 129.03 204.307 128.852 204.636C128.678 204.962 128.591 205.356 128.591 205.818Z" fill="#171717"/>
<mask id="path-8-inside-3_4_1692" fill="white">
<path d="M56 223H384V271H56V223Z"/>
</mask>
<path d="M56 223H384V271H56V223Z" fill="#F2F2F2"/>
<path d="M384 271V270H56V271V272H384V271Z" fill="#171717" mask="url(#path-8-inside-3_4_1692)"/>
<rect width="109" height="48" transform="translate(56 303)" fill="#143C50"/>
<path d="M98.8189 321.364V333H97.2053L91.2905 324.466H91.1825V333H89.4268V321.364H91.0518L96.9723 329.909H97.0803V321.364H98.8189ZM103.783 333.193C103.23 333.193 102.73 333.091 102.283 332.886C101.836 332.678 101.482 332.377 101.221 331.983C100.963 331.589 100.835 331.106 100.835 330.534C100.835 330.042 100.929 329.636 101.119 329.318C101.308 329 101.564 328.748 101.886 328.562C102.208 328.377 102.567 328.237 102.965 328.142C103.363 328.047 103.768 327.975 104.181 327.926C104.704 327.866 105.128 327.816 105.454 327.778C105.78 327.737 106.016 327.67 106.164 327.58C106.312 327.489 106.386 327.341 106.386 327.136V327.097C106.386 326.6 106.246 326.216 105.965 325.943C105.689 325.67 105.276 325.534 104.727 325.534C104.155 325.534 103.704 325.661 103.374 325.915C103.049 326.165 102.823 326.443 102.698 326.75L101.102 326.386C101.291 325.856 101.567 325.428 101.931 325.102C102.299 324.773 102.721 324.534 103.198 324.386C103.675 324.235 104.177 324.159 104.704 324.159C105.052 324.159 105.422 324.201 105.812 324.284C106.206 324.364 106.573 324.511 106.914 324.727C107.259 324.943 107.541 325.252 107.761 325.653C107.98 326.051 108.09 326.568 108.09 327.205V333H106.431V331.807H106.363C106.253 332.027 106.088 332.242 105.869 332.455C105.649 332.667 105.367 332.843 105.022 332.983C104.677 333.123 104.264 333.193 103.783 333.193ZM104.153 331.83C104.622 331.83 105.024 331.737 105.357 331.551C105.694 331.366 105.95 331.123 106.124 330.824C106.302 330.521 106.391 330.197 106.391 329.852V328.727C106.331 328.788 106.213 328.845 106.039 328.898C105.869 328.947 105.674 328.991 105.454 329.028C105.234 329.062 105.02 329.095 104.812 329.125C104.603 329.152 104.429 329.174 104.289 329.193C103.96 329.235 103.658 329.305 103.386 329.403C103.117 329.502 102.901 329.644 102.738 329.83C102.579 330.011 102.499 330.254 102.499 330.557C102.499 330.977 102.655 331.295 102.965 331.511C103.276 331.723 103.672 331.83 104.153 331.83ZM103.124 322.903C102.855 322.903 102.621 322.805 102.42 322.608C102.219 322.407 102.119 322.176 102.119 321.915C102.119 321.631 102.219 321.394 102.42 321.205C102.621 321.015 102.855 320.92 103.124 320.92C103.408 320.92 103.645 321.015 103.835 321.205C104.028 321.394 104.124 321.631 104.124 321.915C104.124 322.176 104.028 322.407 103.835 322.608C103.645 322.805 103.408 322.903 103.124 322.903ZM106.465 322.903C106.196 322.903 105.961 322.805 105.761 322.608C105.56 322.407 105.46 322.176 105.46 321.915C105.46 321.631 105.56 321.394 105.761 321.205C105.961 321.015 106.196 320.92 106.465 320.92C106.749 320.92 106.986 321.015 107.175 321.205C107.369 321.394 107.465 321.631 107.465 321.915C107.465 322.176 107.369 322.407 107.175 322.608C106.986 322.805 106.749 322.903 106.465 322.903ZM116.893 326.403L115.353 326.676C115.289 326.479 115.186 326.292 115.046 326.114C114.91 325.936 114.724 325.79 114.489 325.676C114.254 325.562 113.961 325.506 113.609 325.506C113.128 325.506 112.726 325.614 112.404 325.83C112.082 326.042 111.921 326.316 111.921 326.653C111.921 326.945 112.029 327.18 112.245 327.358C112.461 327.536 112.809 327.682 113.29 327.795L114.677 328.114C115.48 328.299 116.078 328.585 116.472 328.972C116.866 329.358 117.063 329.86 117.063 330.477C117.063 331 116.912 331.466 116.609 331.875C116.309 332.28 115.891 332.598 115.353 332.83C114.819 333.061 114.2 333.176 113.495 333.176C112.518 333.176 111.72 332.968 111.103 332.551C110.486 332.131 110.107 331.534 109.967 330.761L111.609 330.511C111.711 330.939 111.921 331.263 112.239 331.483C112.558 331.699 112.972 331.807 113.484 331.807C114.04 331.807 114.486 331.691 114.819 331.46C115.152 331.225 115.319 330.939 115.319 330.602C115.319 330.33 115.217 330.1 115.012 329.915C114.811 329.729 114.503 329.589 114.086 329.494L112.609 329.17C111.794 328.985 111.192 328.689 110.802 328.284C110.415 327.879 110.222 327.366 110.222 326.744C110.222 326.229 110.366 325.778 110.654 325.392C110.942 325.006 111.34 324.705 111.847 324.489C112.355 324.269 112.936 324.159 113.592 324.159C114.535 324.159 115.277 324.364 115.819 324.773C116.361 325.178 116.719 325.722 116.893 326.403ZM123.005 324.273V325.636H118.238V324.273H123.005ZM119.516 322.182H121.215V330.438C121.215 330.767 121.264 331.015 121.363 331.182C121.461 331.345 121.588 331.456 121.744 331.517C121.903 331.574 122.075 331.602 122.261 331.602C122.397 331.602 122.516 331.593 122.619 331.574C122.721 331.555 122.8 331.54 122.857 331.528L123.164 332.932C123.066 332.97 122.925 333.008 122.744 333.045C122.562 333.087 122.335 333.11 122.062 333.114C121.615 333.121 121.198 333.042 120.812 332.875C120.425 332.708 120.113 332.451 119.874 332.102C119.636 331.754 119.516 331.316 119.516 330.79V322.182ZM127.424 333.193C126.871 333.193 126.371 333.091 125.924 332.886C125.477 332.678 125.123 332.377 124.862 331.983C124.604 331.589 124.475 331.106 124.475 330.534C124.475 330.042 124.57 329.636 124.759 329.318C124.949 329 125.204 328.748 125.526 328.562C125.848 328.377 126.208 328.237 126.606 328.142C127.004 328.047 127.409 327.975 127.822 327.926C128.344 327.866 128.769 327.816 129.094 327.778C129.42 327.737 129.657 327.67 129.805 327.58C129.952 327.489 130.026 327.341 130.026 327.136V327.097C130.026 326.6 129.886 326.216 129.606 325.943C129.329 325.67 128.916 325.534 128.367 325.534C127.795 325.534 127.344 325.661 127.015 325.915C126.689 326.165 126.464 326.443 126.339 326.75L124.742 326.386C124.932 325.856 125.208 325.428 125.572 325.102C125.939 324.773 126.362 324.534 126.839 324.386C127.316 324.235 127.818 324.159 128.344 324.159C128.693 324.159 129.062 324.201 129.452 324.284C129.846 324.364 130.214 324.511 130.555 324.727C130.899 324.943 131.182 325.252 131.401 325.653C131.621 326.051 131.731 326.568 131.731 327.205V333H130.072V331.807H130.004C129.894 332.027 129.729 332.242 129.509 332.455C129.29 332.667 129.007 332.843 128.663 332.983C128.318 333.123 127.905 333.193 127.424 333.193ZM127.793 331.83C128.263 331.83 128.665 331.737 128.998 331.551C129.335 331.366 129.591 331.123 129.765 330.824C129.943 330.521 130.032 330.197 130.032 329.852V328.727C129.971 328.788 129.854 328.845 129.68 328.898C129.509 328.947 129.314 328.991 129.094 329.028C128.875 329.062 128.661 329.095 128.452 329.125C128.244 329.152 128.07 329.174 127.93 329.193C127.6 329.235 127.299 329.305 127.026 329.403C126.757 329.502 126.541 329.644 126.379 329.83C126.219 330.011 126.14 330.254 126.14 330.557C126.14 330.977 126.295 331.295 126.606 331.511C126.916 331.723 127.312 331.83 127.793 331.83Z" fill="white"/>
<g clip-path="url(#clip0_4_1692)">
<path d="M26 34.3333C30.6023 34.3333 34.3333 30.6024 34.3333 26C34.3333 21.3976 30.6023 17.6667 26 17.6667C21.3976 17.6667 17.6666 21.3976 17.6666 26C17.6666 30.6024 21.3976 34.3333 26 34.3333Z" stroke="#008D3C" stroke-width="1.66667" stroke-linecap="round" stroke-linejoin="round"/>
<path d="M23.5 26L25.1667 27.6667L28.5 24.3333" stroke="#008D3C" stroke-width="1.66667" stroke-linecap="round" stroke-linejoin="round"/>
</g>
<defs>
<clipPath id="clip0_4_1692">
<rect width="20" height="20" fill="white" transform="translate(16 16)"/>
</clipPath>
</defs>
</svg>
