<svg width="1042" height="434" viewBox="0 0 1042 434" fill="none" xmlns="http://www.w3.org/2000/svg">
<rect width="1042" height="434" fill="white"/>
<mask id="path-1-inside-1_3556_3796" fill="white">
<path d="M16 16H176V64H16V16Z"/>
</mask>
<path d="M16 16H176V64H16V16Z" fill="#F2F2F2"/>
<path d="M176 64V63H16V64V65H176V64Z" fill="#171717" mask="url(#path-1-inside-1_3556_3796)"/>
<mask id="path-3-inside-2_3556_3796" fill="white">
<path d="M194 16H354V64H194V16Z"/>
</mask>
<path d="M194 16H354V64H194V16Z" fill="#F2F2F2"/>
<path d="M354 64V63H194V64V65H354V64Z" fill="#171717" mask="url(#path-3-inside-2_3556_3796)"/>
<path d="M328 37.5L333 42.5L338 37.5" stroke="#171717" stroke-width="1.67" stroke-linecap="round" stroke-linejoin="round"/>
<rect x="203" y="29" width="40" height="23" rx="11.5" fill="#143C50"/>
<mask id="path-7-inside-3_3556_3796" fill="white">
<path d="M372 16H532V64H372V16Z"/>
</mask>
<path d="M372 16H532V64H372V16Z" fill="#F2F2F2"/>
<path d="M532 64V63H372V64V65H532V64Z" fill="#171717" mask="url(#path-7-inside-3_3556_3796)"/>
<path d="M506 37.5L511 42.5L516 37.5" stroke="#171717" stroke-width="1.67" stroke-linecap="round" stroke-linejoin="round"/>
<mask id="path-10-inside-4_3556_3796" fill="white">
<path d="M550 16H710V64H550V16Z"/>
</mask>
<path d="M550 16H710V64H550V16Z" fill="#F2F2F2"/>
<path d="M710 64V63H550V64V65H710V64Z" fill="#171717" mask="url(#path-10-inside-4_3556_3796)"/>
<mask id="path-12-inside-5_3556_3796" fill="white">
<path d="M728 16H888V64H728V16Z"/>
</mask>
<path d="M728 16H888V64H728V16Z" fill="#F2F2F2"/>
<path d="M888 64V63H728V64V65H888V64Z" fill="#171717" mask="url(#path-12-inside-5_3556_3796)"/>
<rect x="929" y="17" width="96" height="46" stroke="#143C50" stroke-width="2"/>
<rect x="16" y="82" width="1010" height="48" fill="#D9D9D9"/>
<rect x="16" y="130" width="1010" height="48" fill="white"/>
<rect x="16" y="178" width="1010" height="48" fill="#F2F2F2"/>
<rect x="16" y="226" width="1010" height="48" fill="white"/>
<rect x="16" y="274" width="1010" height="48" fill="#F2F2F2"/>
<rect x="16" y="322" width="1010" height="48" fill="white"/>
<rect x="16" y="370" width="1010" height="48" fill="#F2F2F2"/>
</svg>
