<svg width="1042" height="604" viewBox="0 0 1042 604" fill="none" xmlns="http://www.w3.org/2000/svg">
<rect width="1042" height="604" fill="white"/>
<path d="M31 28.5L26 23.5L21 28.5" stroke="#171717" stroke-width="1.67" stroke-linecap="round" stroke-linejoin="round"/>
<rect x="44" y="18" width="67" height="16" fill="#171717"/>
<mask id="path-3-inside-1_3552_3882" fill="white">
<path d="M16 54H336V102H16V54Z"/>
</mask>
<path d="M16 54H336V102H16V54Z" fill="#F2F2F2"/>
<path d="M336 102V101H16V102V103H336V102Z" fill="#171717" mask="url(#path-3-inside-1_3552_3882)"/>
<mask id="path-5-inside-2_3552_3882" fill="white">
<path d="M354 54H674V102H354V54Z"/>
</mask>
<path d="M354 54H674V102H354V54Z" fill="#F2F2F2"/>
<path d="M674 102V101H354V102V103H674V102Z" fill="#171717" mask="url(#path-5-inside-2_3552_3882)"/>
<mask id="path-7-inside-3_3552_3882" fill="white">
<path d="M692 54H1012V102H692V54Z"/>
</mask>
<path d="M692 54H1012V102H692V54Z" fill="#F2F2F2"/>
<path d="M1012 102V101H692V102V103H1012V102Z" fill="#171717" mask="url(#path-7-inside-3_3552_3882)"/>
<mask id="path-9-inside-4_3552_3882" fill="white">
<path d="M16 120H336V168H16V120Z"/>
</mask>
<path d="M16 120H336V168H16V120Z" fill="#F2F2F2"/>
<path d="M336 168V167H16V168V169H336V168Z" fill="#171717" mask="url(#path-9-inside-4_3552_3882)"/>
<mask id="path-11-inside-5_3552_3882" fill="white">
<path d="M354 120H674V168H354V120Z"/>
</mask>
<path d="M354 120H674V168H354V120Z" fill="#F2F2F2"/>
<path d="M674 168V167H354V168V169H674V168Z" fill="#171717" mask="url(#path-11-inside-5_3552_3882)"/>
<path d="M310 141.5L315 146.5L320 141.5" stroke="#171717" stroke-width="1.67" stroke-linecap="round" stroke-linejoin="round"/>
<path d="M310 141.5L315 146.5L320 141.5" stroke="#171717" stroke-width="1.67" stroke-linecap="round" stroke-linejoin="round"/>
<path d="M645 143.5L650 148.5L655 143.5" stroke="#171717" stroke-width="1.67" stroke-linecap="round" stroke-linejoin="round"/>
<rect x="17" y="187" width="96" height="46" stroke="#143C50" stroke-width="2"/>
<rect x="16" y="252" width="1010" height="48" fill="#D9D9D9"/>
<rect x="16" y="300" width="1010" height="48" fill="white"/>
<rect x="16" y="348" width="1010" height="48" fill="#F2F2F2"/>
<rect x="16" y="396" width="1010" height="48" fill="white"/>
<rect x="16" y="444" width="1010" height="48" fill="#F2F2F2"/>
<rect x="16" y="492" width="1010" height="48" fill="white"/>
<rect x="16" y="540" width="1010" height="48" fill="#F2F2F2"/>
</svg>
